<svg width="118" height="35" viewBox="0 0 118 35" fill="none" xmlns="http://www.w3.org/2000/svg">
<rect x="0.967742" y="1.96774" width="28.0645" height="28.0645" rx="14.0323" stroke="#222214" stroke-width="1.93548"/>
<rect x="2.66135" y="3.66123" width="24.6774" height="24.6774" rx="12.3387" fill="#222214"/>
<rect x="2.66135" y="3.66123" width="24.6774" height="24.6774" rx="12.3387" stroke="#F5F5F4" stroke-width="1.45161"/>
<path d="M57.9751 14.452C57.7618 13.3 57.3778 12.4253 56.8231 11.828C56.2898 11.2307 55.4684 10.932 54.3591 10.932C53.6338 10.932 53.0258 11.06 52.5351 11.316C52.0658 11.5507 51.6818 11.8493 51.3831 12.212C51.1058 12.5747 50.9031 12.9587 50.7751 13.364C50.6684 13.7693 50.6044 14.132 50.5831 14.452H57.9751ZM50.5831 17.332C50.6471 18.804 51.0204 19.8707 51.7031 20.532C52.3858 21.1933 53.3671 21.524 54.6471 21.524C55.5644 21.524 56.3538 21.3 57.0151 20.852C57.6764 20.3827 58.0818 19.892 58.2311 19.38H62.2311C61.5911 21.364 60.6098 22.7827 59.2871 23.636C57.9644 24.4893 56.3644 24.916 54.4871 24.916C53.1858 24.916 52.0124 24.7133 50.9671 24.308C49.9218 23.8813 49.0364 23.284 48.3111 22.516C47.5858 21.748 47.0204 20.8307 46.6151 19.764C46.2311 18.6973 46.0391 17.524 46.0391 16.244C46.0391 15.0067 46.2418 13.8547 46.6471 12.788C47.0524 11.7213 47.6284 10.804 48.3751 10.036C49.1218 9.24667 50.0071 8.628 51.0311 8.18C52.0764 7.732 53.2284 7.508 54.4871 7.508C55.8951 7.508 57.1218 7.78533 58.1671 8.34C59.2124 8.87333 60.0658 9.59867 60.7271 10.516C61.4098 11.4333 61.9004 12.4787 62.1991 13.652C62.4978 14.8253 62.6044 16.052 62.5191 17.332H50.5831ZM75.1981 13.78C74.8994 11.8813 73.7794 10.932 71.8381 10.932C71.1128 10.932 70.5048 11.1027 70.0141 11.444C69.5234 11.764 69.1181 12.1907 68.7981 12.724C68.4994 13.236 68.2861 13.812 68.1581 14.452C68.0301 15.0707 67.9661 15.6893 67.9661 16.308C67.9661 16.9053 68.0301 17.5133 68.1581 18.132C68.2861 18.7507 68.4888 19.316 68.7661 19.828C69.0648 20.3187 69.4594 20.724 69.9501 21.044C70.4408 21.364 71.0381 21.524 71.7421 21.524C72.8301 21.524 73.6621 21.2253 74.2381 20.628C74.8354 20.0093 75.2088 19.188 75.3581 18.164H79.7421C79.4434 20.3613 78.5901 22.036 77.1821 23.188C75.7741 24.34 73.9714 24.916 71.7741 24.916C70.5368 24.916 69.3954 24.7133 68.3501 24.308C67.3261 23.8813 66.4514 23.2947 65.7261 22.548C65.0008 21.8013 64.4354 20.916 64.0301 19.892C63.6248 18.8467 63.4221 17.7053 63.4221 16.468C63.4221 15.188 63.6034 14.004 63.9661 12.916C64.3501 11.8067 64.9048 10.8573 65.6301 10.068C66.3554 9.25733 67.2408 8.628 68.2861 8.18C69.3314 7.732 70.5261 7.508 71.8701 7.508C72.8514 7.508 73.7901 7.636 74.6861 7.892C75.6034 8.148 76.4141 8.54267 77.1181 9.076C77.8434 9.588 78.4301 10.2387 78.8781 11.028C79.3261 11.796 79.5821 12.7133 79.6461 13.78H75.1981ZM81.0291 1.652H85.5731V10.26H85.6691C86.2451 9.3 86.9811 8.60667 87.8771 8.18C88.7731 7.732 89.6477 7.508 90.5011 7.508C91.7171 7.508 92.7091 7.67867 93.4771 8.02C94.2664 8.34 94.8851 8.79867 95.3331 9.396C95.7811 9.972 96.0904 10.6867 96.2611 11.54C96.4531 12.372 96.5491 13.3 96.5491 14.324V24.5H92.0051V15.156C92.0051 13.7907 91.7917 12.7773 91.3651 12.116C90.9384 11.4333 90.1811 11.092 89.0931 11.092C87.8557 11.092 86.9597 11.4653 86.4051 12.212C85.8504 12.9373 85.5731 14.1427 85.5731 15.828V24.5H81.0291V1.652ZM102.75 16.244C102.75 16.9053 102.814 17.556 102.942 18.196C103.07 18.8147 103.283 19.38 103.582 19.892C103.902 20.3827 104.318 20.7773 104.83 21.076C105.342 21.3747 105.982 21.524 106.75 21.524C107.518 21.524 108.158 21.3747 108.67 21.076C109.203 20.7773 109.619 20.3827 109.918 19.892C110.238 19.38 110.462 18.8147 110.59 18.196C110.718 17.556 110.782 16.9053 110.782 16.244C110.782 15.5827 110.718 14.932 110.59 14.292C110.462 13.652 110.238 13.0867 109.918 12.596C109.619 12.1053 109.203 11.7107 108.67 11.412C108.158 11.092 107.518 10.932 106.75 10.932C105.982 10.932 105.342 11.092 104.83 11.412C104.318 11.7107 103.902 12.1053 103.582 12.596C103.283 13.0867 103.07 13.652 102.942 14.292C102.814 14.932 102.75 15.5827 102.75 16.244ZM98.2058 16.244C98.2058 14.9213 98.4085 13.7267 98.8138 12.66C99.2192 11.572 99.7952 10.6547 100.542 9.908C101.289 9.14 102.185 8.55333 103.23 8.148C104.275 7.72133 105.449 7.508 106.75 7.508C108.051 7.508 109.225 7.72133 110.27 8.148C111.337 8.55333 112.243 9.14 112.99 9.908C113.737 10.6547 114.313 11.572 114.718 12.66C115.123 13.7267 115.326 14.9213 115.326 16.244C115.326 17.5667 115.123 18.7613 114.718 19.828C114.313 20.8947 113.737 21.812 112.99 22.58C112.243 23.3267 111.337 23.9027 110.27 24.308C109.225 24.7133 108.051 24.916 106.75 24.916C105.449 24.916 104.275 24.7133 103.23 24.308C102.185 23.9027 101.289 23.3267 100.542 22.58C99.7952 21.812 99.2192 20.8947 98.8138 19.828C98.4085 18.7613 98.2058 17.5667 98.2058 16.244Z" fill="#222214"/>
</svg>
