<svg width="118" height="34" viewBox="0 0 118 34" fill="none" xmlns="http://www.w3.org/2000/svg">
<rect x="0.967742" y="1.96774" width="28.0645" height="28.0645" rx="14.0323" stroke="#222214" stroke-width="1.93548"/>
<rect x="2.66135" y="3.66123" width="24.6774" height="24.6774" rx="12.3387" fill="#222214"/>
<rect x="2.66135" y="3.66123" width="24.6774" height="24.6774" rx="12.3387" stroke="#F5F5F4" stroke-width="1.45161"/>
<path d="M57.9751 15.452C57.7618 14.3 57.3778 13.4253 56.8231 12.828C56.2898 12.2307 55.4684 11.932 54.3591 11.932C53.6338 11.932 53.0258 12.06 52.5351 12.316C52.0658 12.5507 51.6818 12.8493 51.3831 13.212C51.1058 13.5747 50.9031 13.9587 50.7751 14.364C50.6684 14.7693 50.6044 15.132 50.5831 15.452H57.9751ZM50.5831 18.332C50.6471 19.804 51.0204 20.8707 51.7031 21.532C52.3858 22.1933 53.3671 22.524 54.6471 22.524C55.5644 22.524 56.3538 22.3 57.0151 21.852C57.6764 21.3827 58.0818 20.892 58.2311 20.38H62.2311C61.5911 22.364 60.6098 23.7827 59.2871 24.636C57.9644 25.4893 56.3644 25.916 54.4871 25.916C53.1858 25.916 52.0124 25.7133 50.9671 25.308C49.9218 24.8813 49.0364 24.284 48.3111 23.516C47.5858 22.748 47.0204 21.8307 46.6151 20.764C46.2311 19.6973 46.0391 18.524 46.0391 17.244C46.0391 16.0067 46.2418 14.8547 46.6471 13.788C47.0524 12.7213 47.6284 11.804 48.3751 11.036C49.1218 10.2467 50.0071 9.628 51.0311 9.18C52.0764 8.732 53.2284 8.508 54.4871 8.508C55.8951 8.508 57.1218 8.78533 58.1671 9.34C59.2124 9.87333 60.0658 10.5987 60.7271 11.516C61.4098 12.4333 61.9004 13.4787 62.1991 14.652C62.4978 15.8253 62.6044 17.052 62.5191 18.332H50.5831ZM75.1981 14.78C74.8994 12.8813 73.7794 11.932 71.8381 11.932C71.1128 11.932 70.5048 12.1027 70.0141 12.444C69.5234 12.764 69.1181 13.1907 68.7981 13.724C68.4994 14.236 68.2861 14.812 68.1581 15.452C68.0301 16.0707 67.9661 16.6893 67.9661 17.308C67.9661 17.9053 68.0301 18.5133 68.1581 19.132C68.2861 19.7507 68.4888 20.316 68.7661 20.828C69.0648 21.3187 69.4594 21.724 69.9501 22.044C70.4408 22.364 71.0381 22.524 71.7421 22.524C72.8301 22.524 73.6621 22.2253 74.2381 21.628C74.8354 21.0093 75.2088 20.188 75.3581 19.164H79.7421C79.4434 21.3613 78.5901 23.036 77.1821 24.188C75.7741 25.34 73.9714 25.916 71.7741 25.916C70.5368 25.916 69.3954 25.7133 68.3501 25.308C67.3261 24.8813 66.4514 24.2947 65.7261 23.548C65.0008 22.8013 64.4354 21.916 64.0301 20.892C63.6248 19.8467 63.4221 18.7053 63.4221 17.468C63.4221 16.188 63.6034 15.004 63.9661 13.916C64.3501 12.8067 64.9048 11.8573 65.6301 11.068C66.3554 10.2573 67.2408 9.628 68.2861 9.18C69.3314 8.732 70.5261 8.508 71.8701 8.508C72.8514 8.508 73.7901 8.636 74.6861 8.892C75.6034 9.148 76.4141 9.54267 77.1181 10.076C77.8434 10.588 78.4301 11.2387 78.8781 12.028C79.3261 12.796 79.5821 13.7133 79.6461 14.78H75.1981ZM81.0291 2.652H85.5731V11.26H85.6691C86.2451 10.3 86.9811 9.60667 87.8771 9.18C88.7731 8.732 89.6477 8.508 90.5011 8.508C91.7171 8.508 92.7091 8.67867 93.4771 9.02C94.2664 9.34 94.8851 9.79867 95.3331 10.396C95.7811 10.972 96.0904 11.6867 96.2611 12.54C96.4531 13.372 96.5491 14.3 96.5491 15.324V25.5H92.0051V16.156C92.0051 14.7907 91.7917 13.7773 91.3651 13.116C90.9384 12.4333 90.1811 12.092 89.0931 12.092C87.8557 12.092 86.9597 12.4653 86.4051 13.212C85.8504 13.9373 85.5731 15.1427 85.5731 16.828V25.5H81.0291V2.652ZM102.75 17.244C102.75 17.9053 102.814 18.556 102.942 19.196C103.07 19.8147 103.283 20.38 103.582 20.892C103.902 21.3827 104.318 21.7773 104.83 22.076C105.342 22.3747 105.982 22.524 106.75 22.524C107.518 22.524 108.158 22.3747 108.67 22.076C109.203 21.7773 109.619 21.3827 109.918 20.892C110.238 20.38 110.462 19.8147 110.59 19.196C110.718 18.556 110.782 17.9053 110.782 17.244C110.782 16.5827 110.718 15.932 110.59 15.292C110.462 14.652 110.238 14.0867 109.918 13.596C109.619 13.1053 109.203 12.7107 108.67 12.412C108.158 12.092 107.518 11.932 106.75 11.932C105.982 11.932 105.342 12.092 104.83 12.412C104.318 12.7107 103.902 13.1053 103.582 13.596C103.283 14.0867 103.07 14.652 102.942 15.292C102.814 15.932 102.75 16.5827 102.75 17.244ZM98.2058 17.244C98.2058 15.9213 98.4085 14.7267 98.8138 13.66C99.2192 12.572 99.7952 11.6547 100.542 10.908C101.289 10.14 102.185 9.55333 103.23 9.148C104.275 8.72133 105.449 8.508 106.75 8.508C108.051 8.508 109.225 8.72133 110.27 9.148C111.337 9.55333 112.243 10.14 112.99 10.908C113.737 11.6547 114.313 12.572 114.718 13.66C115.123 14.7267 115.326 15.9213 115.326 17.244C115.326 18.5667 115.123 19.7613 114.718 20.828C114.313 21.8947 113.737 22.812 112.99 23.58C112.243 24.3267 111.337 24.9027 110.27 25.308C109.225 25.7133 108.051 25.916 106.75 25.916C105.449 25.916 104.275 25.7133 103.23 25.308C102.185 24.9027 101.289 24.3267 100.542 23.58C99.7952 22.812 99.2192 21.8947 98.8138 20.828C98.4085 19.7613 98.2058 18.5667 98.2058 17.244Z" fill="#222214"/>
</svg>
