<svg width="116" height="36" viewBox="0 0 116 36" fill="none" xmlns="http://www.w3.org/2000/svg">
<rect x="0.967742" y="3.96774" width="28.0645" height="28.0645" rx="14.0323" stroke="#222214" stroke-width="1.93548"/>
<rect x="2.66135" y="5.66123" width="24.6774" height="24.6774" rx="12.3387" fill="#222214"/>
<rect x="2.66135" y="5.66123" width="24.6774" height="24.6774" rx="12.3387" stroke="#F5F5F4" stroke-width="1.45161"/>
<path d="M56.864 17.452C56.6507 16.3 56.2667 15.4253 55.712 14.828C55.1787 14.2307 54.3573 13.932 53.248 13.932C52.5227 13.932 51.9147 14.06 51.424 14.316C50.9547 14.5507 50.5707 14.8493 50.272 15.212C49.9947 15.5747 49.792 15.9587 49.664 16.364C49.5573 16.7693 49.4933 17.132 49.472 17.452H56.864ZM49.472 20.332C49.536 21.804 49.9093 22.8707 50.592 23.532C51.2747 24.1933 52.256 24.524 53.536 24.524C54.4533 24.524 55.2427 24.3 55.904 23.852C56.5653 23.3827 56.9707 22.892 57.12 22.38H61.12C60.48 24.364 59.4987 25.7827 58.176 26.636C56.8533 27.4893 55.2533 27.916 53.376 27.916C52.0747 27.916 50.9013 27.7133 49.856 27.308C48.8107 26.8813 47.9253 26.284 47.2 25.516C46.4747 24.748 45.9093 23.8307 45.504 22.764C45.12 21.6973 44.928 20.524 44.928 19.244C44.928 18.0067 45.1307 16.8547 45.536 15.788C45.9413 14.7213 46.5173 13.804 47.264 13.036C48.0107 12.2467 48.896 11.628 49.92 11.18C50.9653 10.732 52.1173 10.508 53.376 10.508C54.784 10.508 56.0107 10.7853 57.056 11.34C58.1013 11.8733 58.9547 12.5987 59.616 13.516C60.2987 14.4333 60.7893 15.4787 61.088 16.652C61.3867 17.8253 61.4933 19.052 61.408 20.332H49.472ZM74.087 16.78C73.7883 14.8813 72.6683 13.932 70.727 13.932C70.0017 13.932 69.3937 14.1027 68.903 14.444C68.4123 14.764 68.007 15.1907 67.687 15.724C67.3883 16.236 67.175 16.812 67.047 17.452C66.919 18.0707 66.855 18.6893 66.855 19.308C66.855 19.9053 66.919 20.5133 67.047 21.132C67.175 21.7507 67.3777 22.316 67.655 22.828C67.9537 23.3187 68.3483 23.724 68.839 24.044C69.3297 24.364 69.927 24.524 70.631 24.524C71.719 24.524 72.551 24.2253 73.127 23.628C73.7243 23.0093 74.0977 22.188 74.247 21.164H78.631C78.3323 23.3613 77.479 25.036 76.071 26.188C74.663 27.34 72.8603 27.916 70.663 27.916C69.4257 27.916 68.2843 27.7133 67.239 27.308C66.215 26.8813 65.3403 26.2947 64.615 25.548C63.8897 24.8013 63.3243 23.916 62.919 22.892C62.5137 21.8467 62.311 20.7053 62.311 19.468C62.311 18.188 62.4923 17.004 62.855 15.916C63.239 14.8067 63.7937 13.8573 64.519 13.068C65.2443 12.2573 66.1297 11.628 67.175 11.18C68.2203 10.732 69.415 10.508 70.759 10.508C71.7403 10.508 72.679 10.636 73.575 10.892C74.4923 11.148 75.303 11.5427 76.007 12.076C76.7323 12.588 77.319 13.2387 77.767 14.028C78.215 14.796 78.471 15.7133 78.535 16.78H74.087ZM79.918 4.652H84.462V13.26H84.558C85.134 12.3 85.87 11.6067 86.766 11.18C87.662 10.732 88.5367 10.508 89.39 10.508C90.606 10.508 91.598 10.6787 92.366 11.02C93.1553 11.34 93.774 11.7987 94.222 12.396C94.67 12.972 94.9793 13.6867 95.15 14.54C95.342 15.372 95.438 16.3 95.438 17.324V27.5H90.894V18.156C90.894 16.7907 90.6807 15.7773 90.254 15.116C89.8273 14.4333 89.07 14.092 87.982 14.092C86.7447 14.092 85.8487 14.4653 85.294 15.212C84.7393 15.9373 84.462 17.1427 84.462 18.828V27.5H79.918V4.652ZM101.639 19.244C101.639 19.9053 101.703 20.556 101.831 21.196C101.959 21.8147 102.172 22.38 102.471 22.892C102.791 23.3827 103.207 23.7773 103.719 24.076C104.231 24.3747 104.871 24.524 105.639 24.524C106.407 24.524 107.047 24.3747 107.559 24.076C108.092 23.7773 108.508 23.3827 108.807 22.892C109.127 22.38 109.351 21.8147 109.479 21.196C109.607 20.556 109.671 19.9053 109.671 19.244C109.671 18.5827 109.607 17.932 109.479 17.292C109.351 16.652 109.127 16.0867 108.807 15.596C108.508 15.1053 108.092 14.7107 107.559 14.412C107.047 14.092 106.407 13.932 105.639 13.932C104.871 13.932 104.231 14.092 103.719 14.412C103.207 14.7107 102.791 15.1053 102.471 15.596C102.172 16.0867 101.959 16.652 101.831 17.292C101.703 17.932 101.639 18.5827 101.639 19.244ZM97.0947 19.244C97.0947 17.9213 97.2974 16.7267 97.7027 15.66C98.1081 14.572 98.6841 13.6547 99.4308 12.908C100.177 12.14 101.073 11.5533 102.119 11.148C103.164 10.7213 104.337 10.508 105.639 10.508C106.94 10.508 108.113 10.7213 109.159 11.148C110.225 11.5533 111.132 12.14 111.879 12.908C112.625 13.6547 113.201 14.572 113.607 15.66C114.012 16.7267 114.215 17.9213 114.215 19.244C114.215 20.5667 114.012 21.7613 113.607 22.828C113.201 23.8947 112.625 24.812 111.879 25.58C111.132 26.3267 110.225 26.9027 109.159 27.308C108.113 27.7133 106.94 27.916 105.639 27.916C104.337 27.916 103.164 27.7133 102.119 27.308C101.073 26.9027 100.177 26.3267 99.4308 25.58C98.6841 24.812 98.1081 23.8947 97.7027 22.828C97.2974 21.7613 97.0947 20.5667 97.0947 19.244Z" fill="#222214"/>
</svg>
