<svg width="166" height="36" viewBox="0 0 166 36" fill="none" xmlns="http://www.w3.org/2000/svg">
<rect x="0.967742" y="3.96774" width="28.0645" height="28.0645" rx="14.0323" stroke="#222214" stroke-width="1.93548"/>
<rect x="2.66135" y="5.66123" width="24.6774" height="24.6774" rx="12.3387" fill="#222214"/>
<rect x="2.66135" y="5.66123" width="24.6774" height="24.6774" rx="12.3387" stroke="#F5F5F4" stroke-width="1.45161"/>
<path d="M54.5511 23.096C55.1911 23.096 55.7564 22.968 56.2471 22.712C56.7378 22.456 57.1431 22.1147 57.4631 21.688C57.7831 21.2613 58.0178 20.7813 58.1671 20.248C58.3378 19.6933 58.4231 19.1173 58.4231 18.52C58.4231 17.8373 58.3591 17.1973 58.2311 16.6C58.1031 15.9813 57.8898 15.4373 57.5911 14.968C57.2924 14.4987 56.8978 14.1253 56.4071 13.848C55.9164 13.5707 55.2978 13.432 54.5511 13.432C53.9111 13.432 53.3564 13.56 52.8871 13.816C52.4391 14.072 52.0551 14.424 51.7351 14.872C51.4364 15.2987 51.2124 15.8 51.0631 16.376C50.9351 16.9307 50.8711 17.5173 50.8711 18.136C50.8711 18.7333 50.9244 19.3307 51.0311 19.928C51.1591 20.504 51.3618 21.0267 51.6391 21.496C51.9378 21.9653 52.3218 22.3493 52.7911 22.648C53.2604 22.9467 53.8471 23.096 54.5511 23.096ZM62.7431 25.944C62.7431 26.6053 62.6471 27.3627 62.4551 28.216C62.2844 29.0693 61.9004 29.8587 61.3031 30.584C60.7058 31.3307 59.8418 31.96 58.7111 32.472C57.5804 32.984 56.0658 33.24 54.1671 33.24C53.3564 33.24 52.5244 33.1333 51.6711 32.92C50.8391 32.728 50.0711 32.4187 49.3671 31.992C48.6844 31.5653 48.1084 31.0107 47.6391 30.328C47.1911 29.6667 46.9351 28.8667 46.8711 27.928H51.3831C51.5964 28.7813 52.0124 29.368 52.6311 29.688C53.2498 30.0293 53.9644 30.2 54.7751 30.2C56.0551 30.2 56.9831 29.816 57.5591 29.048C58.1564 28.28 58.4444 27.3093 58.4231 26.136V23.96H58.3591C57.8684 24.8347 57.1644 25.4853 56.2471 25.912C55.3511 26.3173 54.4018 26.52 53.3991 26.52C52.1618 26.52 51.0951 26.3067 50.1991 25.88C49.3031 25.432 48.5671 24.8347 47.9911 24.088C47.4151 23.32 46.9884 22.4347 46.7111 21.432C46.4551 20.408 46.3271 19.3307 46.3271 18.2C46.3271 17.1333 46.4764 16.1093 46.7751 15.128C47.0951 14.1253 47.5538 13.2507 48.1511 12.504C48.7484 11.736 49.4844 11.128 50.3591 10.68C51.2551 10.232 52.2791 10.008 53.4311 10.008C54.5191 10.008 55.4684 10.2107 56.2791 10.616C57.1111 11.0213 57.8044 11.704 58.3591 12.664H58.4231V10.456H62.7431V25.944ZM69.7936 7.896H65.2496V4.152H69.7936V7.896ZM65.2496 10.456H69.7936V27H65.2496V10.456ZM77.8516 10.456H81.1796V13.496H77.8516V21.688C77.8516 22.456 77.9796 22.968 78.2356 23.224C78.4916 23.48 79.0036 23.608 79.7716 23.608C80.0276 23.608 80.2729 23.5973 80.5076 23.576C80.7423 23.5547 80.9663 23.5227 81.1796 23.48V27C80.7956 27.064 80.3689 27.1067 79.8996 27.128C79.4303 27.1493 78.9716 27.16 78.5236 27.16C77.8196 27.16 77.1476 27.1067 76.5076 27C75.8889 26.9147 75.3343 26.7333 74.8436 26.456C74.3743 26.1787 74.0009 25.784 73.7236 25.272C73.4463 24.76 73.3076 24.088 73.3076 23.256V13.496H70.5556V10.456H73.3076V5.496H77.8516V10.456ZM100.974 27H96.3016L93.3576 15.896H93.2936L90.4776 27H85.7736L80.5256 10.456H85.3256L88.3656 21.688H88.4296L91.1816 10.456H95.5976L98.4136 21.656H98.4776L101.518 10.456H106.19L100.974 27ZM106.652 15.544C106.716 14.4773 106.983 13.592 107.452 12.888C107.921 12.184 108.519 11.6187 109.244 11.192C109.969 10.7653 110.78 10.4667 111.676 10.296C112.593 10.104 113.511 10.008 114.428 10.008C115.26 10.008 116.103 10.072 116.956 10.2C117.809 10.3067 118.588 10.5307 119.292 10.872C119.996 11.2133 120.572 11.6933 121.02 12.312C121.468 12.9093 121.692 13.7093 121.692 14.712V23.32C121.692 24.0667 121.735 24.7813 121.82 25.464C121.905 26.1467 122.055 26.6587 122.268 27H117.66C117.575 26.744 117.5 26.488 117.436 26.232C117.393 25.9547 117.361 25.6773 117.34 25.4C116.615 26.1467 115.761 26.6693 114.78 26.968C113.799 27.2667 112.796 27.416 111.772 27.416C110.983 27.416 110.247 27.32 109.564 27.128C108.881 26.936 108.284 26.6373 107.772 26.232C107.26 25.8267 106.855 25.3147 106.556 24.696C106.279 24.0773 106.14 23.3413 106.14 22.488C106.14 21.5493 106.3 20.7813 106.62 20.184C106.961 19.5653 107.388 19.0747 107.9 18.712C108.433 18.3493 109.031 18.0827 109.692 17.912C110.375 17.72 111.057 17.5707 111.74 17.464C112.423 17.3573 113.095 17.272 113.756 17.208C114.417 17.144 115.004 17.048 115.516 16.92C116.028 16.792 116.433 16.6107 116.732 16.376C117.031 16.12 117.169 15.7573 117.148 15.288C117.148 14.7973 117.063 14.4133 116.892 14.136C116.743 13.8373 116.529 13.6133 116.252 13.464C115.996 13.2933 115.687 13.1867 115.324 13.144C114.983 13.08 114.609 13.048 114.204 13.048C113.308 13.048 112.604 13.24 112.092 13.624C111.58 14.008 111.281 14.648 111.196 15.544H106.652ZM117.148 18.904C116.956 19.0747 116.711 19.2133 116.412 19.32C116.135 19.4053 115.825 19.48 115.484 19.544C115.164 19.608 114.823 19.6613 114.46 19.704C114.097 19.7467 113.735 19.8 113.372 19.864C113.031 19.928 112.689 20.0133 112.348 20.12C112.028 20.2267 111.74 20.376 111.484 20.568C111.249 20.7387 111.057 20.9627 110.908 21.24C110.759 21.5173 110.684 21.8693 110.684 22.296C110.684 22.7013 110.759 23.0427 110.908 23.32C111.057 23.5973 111.26 23.8213 111.516 23.992C111.772 24.1413 112.071 24.248 112.412 24.312C112.753 24.376 113.105 24.408 113.468 24.408C114.364 24.408 115.057 24.2587 115.548 23.96C116.039 23.6613 116.401 23.3093 116.636 22.904C116.871 22.4773 117.009 22.0507 117.052 21.624C117.116 21.1973 117.148 20.856 117.148 20.6V18.904ZM124.067 4.152H128.611V27H124.067V4.152ZM131.037 4.152H135.581V27H131.037V4.152ZM149.015 16.952C148.802 15.8 148.418 14.9253 147.863 14.328C147.33 13.7307 146.508 13.432 145.399 13.432C144.674 13.432 144.066 13.56 143.575 13.816C143.106 14.0507 142.722 14.3493 142.423 14.712C142.146 15.0747 141.943 15.4587 141.815 15.864C141.708 16.2693 141.644 16.632 141.623 16.952H149.015ZM141.623 19.832C141.687 21.304 142.06 22.3707 142.743 23.032C143.426 23.6933 144.407 24.024 145.687 24.024C146.604 24.024 147.394 23.8 148.055 23.352C148.716 22.8827 149.122 22.392 149.271 21.88H153.271C152.631 23.864 151.65 25.2827 150.327 26.136C149.004 26.9893 147.404 27.416 145.527 27.416C144.226 27.416 143.052 27.2133 142.007 26.808C140.962 26.3813 140.076 25.784 139.351 25.016C138.626 24.248 138.06 23.3307 137.655 22.264C137.271 21.1973 137.079 20.024 137.079 18.744C137.079 17.5067 137.282 16.3547 137.687 15.288C138.092 14.2213 138.668 13.304 139.415 12.536C140.162 11.7467 141.047 11.128 142.071 10.68C143.116 10.232 144.268 10.008 145.527 10.008C146.935 10.008 148.162 10.2853 149.207 10.84C150.252 11.3733 151.106 12.0987 151.767 13.016C152.45 13.9333 152.94 14.9787 153.239 16.152C153.538 17.3253 153.644 18.552 153.559 19.832H141.623ZM160.734 10.456H164.062V13.496H160.734V21.688C160.734 22.456 160.862 22.968 161.118 23.224C161.374 23.48 161.886 23.608 162.654 23.608C162.91 23.608 163.155 23.5973 163.39 23.576C163.625 23.5547 163.849 23.5227 164.062 23.48V27C163.678 27.064 163.251 27.1067 162.782 27.128C162.313 27.1493 161.854 27.16 161.406 27.16C160.702 27.16 160.03 27.1067 159.39 27C158.771 26.9147 158.217 26.7333 157.726 26.456C157.257 26.1787 156.883 25.784 156.606 25.272C156.329 24.76 156.19 24.088 156.19 23.256V13.496H153.438V10.456H156.19V5.496H160.734V10.456Z" fill="#222214"/>
</svg>
