<svg width="166" height="38" viewBox="0 0 166 38" fill="none" xmlns="http://www.w3.org/2000/svg">
<rect x="0.967742" y="4.96774" width="28.0645" height="28.0645" rx="14.0323" stroke="#222214" stroke-width="1.93548"/>
<rect x="2.66135" y="6.66123" width="24.6774" height="24.6774" rx="12.3387" fill="#222214"/>
<rect x="2.66135" y="6.66123" width="24.6774" height="24.6774" rx="12.3387" stroke="#F5F5F4" stroke-width="1.45161"/>
<path d="M54.5511 23.596C55.1911 23.596 55.7564 23.468 56.2471 23.212C56.7378 22.956 57.1431 22.6147 57.4631 22.188C57.7831 21.7613 58.0178 21.2813 58.1671 20.748C58.3378 20.1933 58.4231 19.6173 58.4231 19.02C58.4231 18.3373 58.3591 17.6973 58.2311 17.1C58.1031 16.4813 57.8898 15.9373 57.5911 15.468C57.2924 14.9987 56.8978 14.6253 56.4071 14.348C55.9164 14.0707 55.2978 13.932 54.5511 13.932C53.9111 13.932 53.3564 14.06 52.8871 14.316C52.4391 14.572 52.0551 14.924 51.7351 15.372C51.4364 15.7987 51.2124 16.3 51.0631 16.876C50.9351 17.4307 50.8711 18.0173 50.8711 18.636C50.8711 19.2333 50.9244 19.8307 51.0311 20.428C51.1591 21.004 51.3618 21.5267 51.6391 21.996C51.9378 22.4653 52.3218 22.8493 52.7911 23.148C53.2604 23.4467 53.8471 23.596 54.5511 23.596ZM62.7431 26.444C62.7431 27.1053 62.6471 27.8627 62.4551 28.716C62.2844 29.5693 61.9004 30.3587 61.3031 31.084C60.7058 31.8307 59.8418 32.46 58.7111 32.972C57.5804 33.484 56.0658 33.74 54.1671 33.74C53.3564 33.74 52.5244 33.6333 51.6711 33.42C50.8391 33.228 50.0711 32.9187 49.3671 32.492C48.6844 32.0653 48.1084 31.5107 47.6391 30.828C47.1911 30.1667 46.9351 29.3667 46.8711 28.428H51.3831C51.5964 29.2813 52.0124 29.868 52.6311 30.188C53.2498 30.5293 53.9644 30.7 54.7751 30.7C56.0551 30.7 56.9831 30.316 57.5591 29.548C58.1564 28.78 58.4444 27.8093 58.4231 26.636V24.46H58.3591C57.8684 25.3347 57.1644 25.9853 56.2471 26.412C55.3511 26.8173 54.4018 27.02 53.3991 27.02C52.1618 27.02 51.0951 26.8067 50.1991 26.38C49.3031 25.932 48.5671 25.3347 47.9911 24.588C47.4151 23.82 46.9884 22.9347 46.7111 21.932C46.4551 20.908 46.3271 19.8307 46.3271 18.7C46.3271 17.6333 46.4764 16.6093 46.7751 15.628C47.0951 14.6253 47.5538 13.7507 48.1511 13.004C48.7484 12.236 49.4844 11.628 50.3591 11.18C51.2551 10.732 52.2791 10.508 53.4311 10.508C54.5191 10.508 55.4684 10.7107 56.2791 11.116C57.1111 11.5213 57.8044 12.204 58.3591 13.164H58.4231V10.956H62.7431V26.444ZM69.7936 8.396H65.2496V4.652H69.7936V8.396ZM65.2496 10.956H69.7936V27.5H65.2496V10.956ZM77.8516 10.956H81.1796V13.996H77.8516V22.188C77.8516 22.956 77.9796 23.468 78.2356 23.724C78.4916 23.98 79.0036 24.108 79.7716 24.108C80.0276 24.108 80.2729 24.0973 80.5076 24.076C80.7423 24.0547 80.9663 24.0227 81.1796 23.98V27.5C80.7956 27.564 80.3689 27.6067 79.8996 27.628C79.4303 27.6493 78.9716 27.66 78.5236 27.66C77.8196 27.66 77.1476 27.6067 76.5076 27.5C75.8889 27.4147 75.3343 27.2333 74.8436 26.956C74.3743 26.6787 74.0009 26.284 73.7236 25.772C73.4463 25.26 73.3076 24.588 73.3076 23.756V13.996H70.5556V10.956H73.3076V5.996H77.8516V10.956ZM100.974 27.5H96.3016L93.3576 16.396H93.2936L90.4776 27.5H85.7736L80.5256 10.956H85.3256L88.3656 22.188H88.4296L91.1816 10.956H95.5976L98.4136 22.156H98.4776L101.518 10.956H106.19L100.974 27.5ZM106.652 16.044C106.716 14.9773 106.983 14.092 107.452 13.388C107.921 12.684 108.519 12.1187 109.244 11.692C109.969 11.2653 110.78 10.9667 111.676 10.796C112.593 10.604 113.511 10.508 114.428 10.508C115.26 10.508 116.103 10.572 116.956 10.7C117.809 10.8067 118.588 11.0307 119.292 11.372C119.996 11.7133 120.572 12.1933 121.02 12.812C121.468 13.4093 121.692 14.2093 121.692 15.212V23.82C121.692 24.5667 121.735 25.2813 121.82 25.964C121.905 26.6467 122.055 27.1587 122.268 27.5H117.66C117.575 27.244 117.5 26.988 117.436 26.732C117.393 26.4547 117.361 26.1773 117.34 25.9C116.615 26.6467 115.761 27.1693 114.78 27.468C113.799 27.7667 112.796 27.916 111.772 27.916C110.983 27.916 110.247 27.82 109.564 27.628C108.881 27.436 108.284 27.1373 107.772 26.732C107.26 26.3267 106.855 25.8147 106.556 25.196C106.279 24.5773 106.14 23.8413 106.14 22.988C106.14 22.0493 106.3 21.2813 106.62 20.684C106.961 20.0653 107.388 19.5747 107.9 19.212C108.433 18.8493 109.031 18.5827 109.692 18.412C110.375 18.22 111.057 18.0707 111.74 17.964C112.423 17.8573 113.095 17.772 113.756 17.708C114.417 17.644 115.004 17.548 115.516 17.42C116.028 17.292 116.433 17.1107 116.732 16.876C117.031 16.62 117.169 16.2573 117.148 15.788C117.148 15.2973 117.063 14.9133 116.892 14.636C116.743 14.3373 116.529 14.1133 116.252 13.964C115.996 13.7933 115.687 13.6867 115.324 13.644C114.983 13.58 114.609 13.548 114.204 13.548C113.308 13.548 112.604 13.74 112.092 14.124C111.58 14.508 111.281 15.148 111.196 16.044H106.652ZM117.148 19.404C116.956 19.5747 116.711 19.7133 116.412 19.82C116.135 19.9053 115.825 19.98 115.484 20.044C115.164 20.108 114.823 20.1613 114.46 20.204C114.097 20.2467 113.735 20.3 113.372 20.364C113.031 20.428 112.689 20.5133 112.348 20.62C112.028 20.7267 111.74 20.876 111.484 21.068C111.249 21.2387 111.057 21.4627 110.908 21.74C110.759 22.0173 110.684 22.3693 110.684 22.796C110.684 23.2013 110.759 23.5427 110.908 23.82C111.057 24.0973 111.26 24.3213 111.516 24.492C111.772 24.6413 112.071 24.748 112.412 24.812C112.753 24.876 113.105 24.908 113.468 24.908C114.364 24.908 115.057 24.7587 115.548 24.46C116.039 24.1613 116.401 23.8093 116.636 23.404C116.871 22.9773 117.009 22.5507 117.052 22.124C117.116 21.6973 117.148 21.356 117.148 21.1V19.404ZM124.067 4.652H128.611V27.5H124.067V4.652ZM131.037 4.652H135.581V27.5H131.037V4.652ZM149.015 17.452C148.802 16.3 148.418 15.4253 147.863 14.828C147.33 14.2307 146.508 13.932 145.399 13.932C144.674 13.932 144.066 14.06 143.575 14.316C143.106 14.5507 142.722 14.8493 142.423 15.212C142.146 15.5747 141.943 15.9587 141.815 16.364C141.708 16.7693 141.644 17.132 141.623 17.452H149.015ZM141.623 20.332C141.687 21.804 142.06 22.8707 142.743 23.532C143.426 24.1933 144.407 24.524 145.687 24.524C146.604 24.524 147.394 24.3 148.055 23.852C148.716 23.3827 149.122 22.892 149.271 22.38H153.271C152.631 24.364 151.65 25.7827 150.327 26.636C149.004 27.4893 147.404 27.916 145.527 27.916C144.226 27.916 143.052 27.7133 142.007 27.308C140.962 26.8813 140.076 26.284 139.351 25.516C138.626 24.748 138.06 23.8307 137.655 22.764C137.271 21.6973 137.079 20.524 137.079 19.244C137.079 18.0067 137.282 16.8547 137.687 15.788C138.092 14.7213 138.668 13.804 139.415 13.036C140.162 12.2467 141.047 11.628 142.071 11.18C143.116 10.732 144.268 10.508 145.527 10.508C146.935 10.508 148.162 10.7853 149.207 11.34C150.252 11.8733 151.106 12.5987 151.767 13.516C152.45 14.4333 152.94 15.4787 153.239 16.652C153.538 17.8253 153.644 19.052 153.559 20.332H141.623ZM160.734 10.956H164.062V13.996H160.734V22.188C160.734 22.956 160.862 23.468 161.118 23.724C161.374 23.98 161.886 24.108 162.654 24.108C162.91 24.108 163.155 24.0973 163.39 24.076C163.625 24.0547 163.849 24.0227 164.062 23.98V27.5C163.678 27.564 163.251 27.6067 162.782 27.628C162.313 27.6493 161.854 27.66 161.406 27.66C160.702 27.66 160.03 27.6067 159.39 27.5C158.771 27.4147 158.217 27.2333 157.726 26.956C157.257 26.6787 156.883 26.284 156.606 25.772C156.329 25.26 156.19 24.588 156.19 23.756V13.996H153.438V10.956H156.19V5.996H160.734V10.956Z" fill="#222214"/>
</svg>
