<svg width="204" height="83" viewBox="0 0 204 83" fill="none" xmlns="http://www.w3.org/2000/svg">
<g clip-path="url(#clip0_670_31)">
<path d="M54.2273 11.5455V29H52.1136V11.5455H54.2273ZM60.2038 21.125V29H58.1925V15.9091H60.1357V17.9545H60.3061C60.6129 17.2898 61.0788 16.7557 61.7038 16.3523C62.3288 15.9432 63.1357 15.7386 64.1243 15.7386C65.0107 15.7386 65.7862 15.9205 66.451 16.2841C67.1158 16.642 67.6328 17.1875 68.0021 17.9205C68.3714 18.6477 68.5561 19.5682 68.5561 20.6818V29H66.5447V20.8182C66.5447 19.7898 66.2777 18.9886 65.7436 18.4148C65.2095 17.8352 64.4766 17.5455 63.5447 17.5455C62.9027 17.5455 62.3288 17.6847 61.8232 17.9631C61.3232 18.2415 60.9283 18.6477 60.6385 19.1818C60.3487 19.7159 60.2038 20.3636 60.2038 21.125ZM77.9247 15.9091V17.6136H71.1406V15.9091H77.9247ZM73.1179 12.7727H75.1293V25.25C75.1293 25.8182 75.2116 26.2443 75.3764 26.5284C75.5469 26.8068 75.7628 26.9943 76.0241 27.0909C76.2912 27.1818 76.5724 27.2273 76.8679 27.2273C77.0895 27.2273 77.2713 27.2159 77.4134 27.1932C77.5554 27.1648 77.669 27.142 77.7543 27.125L78.1634 28.9318C78.027 28.983 77.8366 29.0341 77.5923 29.0852C77.348 29.142 77.0384 29.1705 76.6634 29.1705C76.0952 29.1705 75.5384 29.0483 74.9929 28.804C74.4531 28.5597 74.0043 28.1875 73.6463 27.6875C73.294 27.1875 73.1179 26.5568 73.1179 25.7955V12.7727ZM86.2983 29.2727C85.0369 29.2727 83.9489 28.9943 83.0341 28.4375C82.125 27.875 81.4233 27.0909 80.929 26.0852C80.4403 25.0739 80.196 23.8977 80.196 22.5568C80.196 21.2159 80.4403 20.0341 80.929 19.0114C81.4233 17.983 82.1108 17.1818 82.9915 16.608C83.8778 16.0284 84.9119 15.7386 86.0938 15.7386C86.7756 15.7386 87.4489 15.8523 88.1136 16.0795C88.7784 16.3068 89.3835 16.6761 89.929 17.1875C90.4744 17.6932 90.9091 18.3636 91.233 19.1989C91.5568 20.0341 91.7188 21.0625 91.7188 22.2841V23.1364H81.6278V21.3977H89.6733C89.6733 20.6591 89.5256 20 89.2301 19.4205C88.9403 18.8409 88.5256 18.3835 87.9858 18.0483C87.4517 17.7131 86.821 17.5455 86.0938 17.5455C85.2926 17.5455 84.5994 17.7443 84.0142 18.142C83.4347 18.5341 82.9886 19.0455 82.6761 19.6761C82.3636 20.3068 82.2074 20.983 82.2074 21.7045V22.8636C82.2074 23.8523 82.3778 24.6903 82.7188 25.3778C83.0653 26.0597 83.5455 26.5795 84.1591 26.9375C84.7727 27.2898 85.4858 27.4659 86.2983 27.4659C86.8267 27.4659 87.304 27.392 87.7301 27.2443C88.1619 27.0909 88.5341 26.8636 88.8466 26.5625C89.1591 26.2557 89.4006 25.875 89.571 25.4205L91.5142 25.9659C91.3097 26.625 90.9659 27.2045 90.483 27.7045C90 28.1989 89.4034 28.5852 88.6932 28.8636C87.983 29.1364 87.1847 29.2727 86.2983 29.2727ZM94.7784 29V15.9091H96.7216V17.8864H96.858C97.0966 17.2386 97.5284 16.7131 98.1534 16.3097C98.7784 15.9062 99.483 15.7045 100.267 15.7045C100.415 15.7045 100.599 15.7074 100.821 15.7131C101.043 15.7187 101.21 15.7273 101.324 15.7386V17.7841C101.256 17.767 101.099 17.7415 100.855 17.7074C100.616 17.6676 100.364 17.6477 100.097 17.6477C99.4602 17.6477 98.892 17.7812 98.392 18.0483C97.8977 18.3097 97.5057 18.6733 97.2159 19.1392C96.9318 19.5994 96.7898 20.125 96.7898 20.7159V29H94.7784ZM52.1136 49V31.5455H58.0114C59.3807 31.5455 60.5 31.7926 61.3693 32.2869C62.2443 32.7756 62.892 33.4375 63.3125 34.2727C63.733 35.108 63.9432 36.0398 63.9432 37.0682C63.9432 38.0966 63.733 39.0312 63.3125 39.8722C62.8977 40.7131 62.2557 41.3835 61.3864 41.8835C60.517 42.3778 59.4034 42.625 58.0455 42.625H53.8182V40.75H57.9773C58.9148 40.75 59.6676 40.5881 60.2358 40.2642C60.804 39.9403 61.2159 39.5028 61.4716 38.9517C61.733 38.3949 61.8636 37.767 61.8636 37.0682C61.8636 36.3693 61.733 35.7443 61.4716 35.1932C61.2159 34.642 60.8011 34.2102 60.2273 33.8977C59.6534 33.5795 58.892 33.4205 57.9432 33.4205H54.2273V49H52.1136ZM69.0866 31.5455V49H67.0753V31.5455H69.0866ZM76.6229 49.3068C75.7933 49.3068 75.0405 49.1506 74.3643 48.8381C73.6882 48.5199 73.1513 48.0625 72.7536 47.4659C72.3558 46.8636 72.157 46.1364 72.157 45.2841C72.157 44.5341 72.3047 43.9261 72.6001 43.4602C72.8956 42.9886 73.2905 42.6193 73.7848 42.3523C74.2791 42.0852 74.8246 41.8864 75.4212 41.7557C76.0234 41.6193 76.6286 41.5114 77.2365 41.4318C78.032 41.3295 78.6768 41.2528 79.1712 41.2017C79.6712 41.1449 80.0348 41.0511 80.2621 40.9205C80.495 40.7898 80.6115 40.5625 80.6115 40.2386V40.1705C80.6115 39.3295 80.3814 38.6761 79.9212 38.2102C79.4666 37.7443 78.7763 37.5114 77.8501 37.5114C76.8899 37.5114 76.1371 37.7216 75.5916 38.142C75.0462 38.5625 74.6626 39.0114 74.4411 39.4886L72.532 38.8068C72.8729 38.0114 73.3274 37.392 73.8956 36.9489C74.4695 36.5 75.0945 36.1875 75.7706 36.0114C76.4524 35.8295 77.1229 35.7386 77.782 35.7386C78.2024 35.7386 78.6854 35.7898 79.2308 35.892C79.782 35.9886 80.3132 36.1903 80.8246 36.4972C81.3416 36.804 81.7706 37.267 82.1115 37.8864C82.4524 38.5057 82.6229 39.3352 82.6229 40.375V49H80.6115V47.2273H80.5092C80.3729 47.5114 80.1456 47.8153 79.8274 48.1392C79.5092 48.4631 79.0859 48.7386 78.5575 48.9659C78.0291 49.1932 77.3842 49.3068 76.6229 49.3068ZM76.9297 47.5C77.7251 47.5 78.3956 47.3438 78.9411 47.0312C79.4922 46.7188 79.907 46.3153 80.1854 45.821C80.4695 45.3267 80.6115 44.8068 80.6115 44.2614V42.4205C80.5263 42.5227 80.3388 42.6165 80.049 42.7017C79.7649 42.7812 79.4354 42.8523 79.0604 42.9148C78.6911 42.9716 78.3303 43.0227 77.978 43.0682C77.6314 43.108 77.3501 43.142 77.1342 43.1705C76.6115 43.2386 76.1229 43.3494 75.6683 43.5028C75.2195 43.6506 74.8558 43.875 74.5774 44.1761C74.3047 44.4716 74.1683 44.875 74.1683 45.3864C74.1683 46.0852 74.4268 46.6136 74.9439 46.9716C75.4666 47.3239 76.1286 47.5 76.9297 47.5ZM88.3054 41.125V49H86.294V35.9091H88.2372V37.9545H88.4077C88.7145 37.2898 89.1804 36.7557 89.8054 36.3523C90.4304 35.9432 91.2372 35.7386 92.2259 35.7386C93.1122 35.7386 93.8878 35.9205 94.5526 36.2841C95.2173 36.642 95.7344 37.1875 96.1037 37.9205C96.473 38.6477 96.6577 39.5682 96.6577 40.6818V49H94.6463V40.8182C94.6463 39.7898 94.3793 38.9886 93.8452 38.4148C93.3111 37.8352 92.5781 37.5455 91.6463 37.5455C91.0043 37.5455 90.4304 37.6847 89.9247 37.9631C89.4247 38.2415 89.0298 38.6477 88.7401 39.1818C88.4503 39.7159 88.3054 40.3636 88.3054 41.125ZM105.822 49.2727C104.56 49.2727 103.472 48.9943 102.558 48.4375C101.648 47.875 100.947 47.0909 100.452 46.0852C99.9638 45.0739 99.7195 43.8977 99.7195 42.5568C99.7195 41.2159 99.9638 40.0341 100.452 39.0114C100.947 37.983 101.634 37.1818 102.515 36.608C103.401 36.0284 104.435 35.7386 105.617 35.7386C106.299 35.7386 106.972 35.8523 107.637 36.0795C108.302 36.3068 108.907 36.6761 109.452 37.1875C109.998 37.6932 110.433 38.3636 110.756 39.1989C111.08 40.0341 111.242 41.0625 111.242 42.2841V43.1364H101.151V41.3977H109.197C109.197 40.6591 109.049 40 108.754 39.4205C108.464 38.8409 108.049 38.3835 107.509 38.0483C106.975 37.7131 106.344 37.5455 105.617 37.5455C104.816 37.5455 104.123 37.7443 103.538 38.142C102.958 38.5341 102.512 39.0455 102.2 39.6761C101.887 40.3068 101.731 40.983 101.731 41.7045V42.8636C101.731 43.8523 101.901 44.6903 102.242 45.3778C102.589 46.0597 103.069 46.5795 103.683 46.9375C104.296 47.2898 105.009 47.4659 105.822 47.4659C106.35 47.4659 106.827 47.392 107.254 47.2443C107.685 47.0909 108.058 46.8636 108.37 46.5625C108.683 46.2557 108.924 45.875 109.094 45.4205L111.038 45.9659C110.833 46.625 110.489 47.2045 110.006 47.7045C109.523 48.1989 108.927 48.5852 108.217 48.8636C107.506 49.1364 106.708 49.2727 105.822 49.2727ZM119.995 35.9091V37.6136H113.211V35.9091H119.995ZM115.188 32.7727H117.2V45.25C117.2 45.8182 117.282 46.2443 117.447 46.5284C117.617 46.8068 117.833 46.9943 118.094 47.0909C118.362 47.1818 118.643 47.2273 118.938 47.2273C119.16 47.2273 119.342 47.2159 119.484 47.1932C119.626 47.1648 119.739 47.142 119.825 47.125L120.234 48.9318C120.097 48.983 119.907 49.0341 119.663 49.0852C119.418 49.142 119.109 49.1705 118.734 49.1705C118.165 49.1705 117.609 49.0483 117.063 48.804C116.523 48.5597 116.075 48.1875 115.717 47.6875C115.364 47.1875 115.188 46.5568 115.188 45.7955V32.7727ZM126.873 49.3068C126.043 49.3068 125.29 49.1506 124.614 48.8381C123.938 48.5199 123.401 48.0625 123.004 47.4659C122.606 46.8636 122.407 46.1364 122.407 45.2841C122.407 44.5341 122.555 43.9261 122.85 43.4602C123.146 42.9886 123.54 42.6193 124.035 42.3523C124.529 42.0852 125.075 41.8864 125.671 41.7557C126.273 41.6193 126.879 41.5114 127.487 41.4318C128.282 41.3295 128.927 41.2528 129.421 41.2017C129.921 41.1449 130.285 41.0511 130.512 40.9205C130.745 40.7898 130.862 40.5625 130.862 40.2386V40.1705C130.862 39.3295 130.631 38.6761 130.171 38.2102C129.717 37.7443 129.026 37.5114 128.1 37.5114C127.14 37.5114 126.387 37.7216 125.842 38.142C125.296 38.5625 124.913 39.0114 124.691 39.4886L122.782 38.8068C123.123 38.0114 123.577 37.392 124.146 36.9489C124.719 36.5 125.344 36.1875 126.021 36.0114C126.702 35.8295 127.373 35.7386 128.032 35.7386C128.452 35.7386 128.935 35.7898 129.481 35.892C130.032 35.9886 130.563 36.1903 131.075 36.4972C131.592 36.804 132.021 37.267 132.362 37.8864C132.702 38.5057 132.873 39.3352 132.873 40.375V49H130.862V47.2273H130.759C130.623 47.5114 130.396 47.8153 130.077 48.1392C129.759 48.4631 129.336 48.7386 128.808 48.9659C128.279 49.1932 127.634 49.3068 126.873 49.3068ZM127.18 47.5C127.975 47.5 128.646 47.3438 129.191 47.0312C129.742 46.7188 130.157 46.3153 130.435 45.821C130.719 45.3267 130.862 44.8068 130.862 44.2614V42.4205C130.776 42.5227 130.589 42.6165 130.299 42.7017C130.015 42.7812 129.685 42.8523 129.31 42.9148C128.941 42.9716 128.58 43.0227 128.228 43.0682C127.881 43.108 127.6 43.142 127.384 43.1705C126.862 43.2386 126.373 43.3494 125.918 43.5028C125.469 43.6506 125.106 43.875 124.827 44.1761C124.555 44.4716 124.418 44.875 124.418 45.3864C124.418 46.0852 124.677 46.6136 125.194 46.9716C125.717 47.3239 126.379 47.5 127.18 47.5ZM136.544 49V35.9091H138.487V37.8864H138.624C138.862 37.2386 139.294 36.7131 139.919 36.3097C140.544 35.9062 141.249 35.7045 142.033 35.7045C142.18 35.7045 142.365 35.7074 142.587 35.7131C142.808 35.7187 142.976 35.7273 143.089 35.7386V37.7841C143.021 37.767 142.865 37.7415 142.621 37.7074C142.382 37.6676 142.129 37.6477 141.862 37.6477C141.226 37.6477 140.658 37.7812 140.158 38.0483C139.663 38.3097 139.271 38.6733 138.982 39.1392C138.697 39.5994 138.555 40.125 138.555 40.7159V49H136.544ZM147.168 53.9091C146.827 53.9091 146.523 53.8807 146.256 53.8239C145.989 53.7727 145.804 53.7216 145.702 53.6705L146.213 51.8977C146.702 52.0227 147.134 52.0682 147.509 52.0341C147.884 52 148.216 51.8324 148.506 51.5312C148.801 51.2358 149.071 50.7557 149.315 50.0909L149.69 49.0682L144.849 35.9091H147.031L150.645 46.3409H150.781L154.395 35.9091H156.577L151.02 50.9091C150.77 51.5852 150.46 52.1449 150.091 52.5881C149.722 53.0369 149.293 53.3693 148.804 53.5852C148.321 53.8011 147.776 53.9091 147.168 53.9091ZM61.6591 55.9091C61.5568 55.0455 61.142 54.375 60.4148 53.8977C59.6875 53.4205 58.7955 53.1818 57.7386 53.1818C56.9659 53.1818 56.2898 53.3068 55.7102 53.5568C55.1364 53.8068 54.6875 54.1506 54.3636 54.5881C54.0455 55.0256 53.8864 55.5227 53.8864 56.0795C53.8864 56.5455 53.9972 56.946 54.2188 57.2812C54.446 57.6108 54.7358 57.8864 55.0881 58.108C55.4403 58.3239 55.8097 58.5028 56.196 58.6449C56.5824 58.7812 56.9375 58.892 57.2614 58.9773L59.0341 59.4545C59.4886 59.5739 59.9943 59.7386 60.5511 59.9489C61.1136 60.1591 61.6506 60.446 62.1619 60.8097C62.679 61.1676 63.1051 61.6278 63.4403 62.1903C63.7756 62.7528 63.9432 63.4432 63.9432 64.2614C63.9432 65.2045 63.696 66.0568 63.2017 66.8182C62.7131 67.5795 61.9972 68.1847 61.054 68.6335C60.1165 69.0824 58.9773 69.3068 57.6364 69.3068C56.3864 69.3068 55.304 69.1051 54.3892 68.7017C53.4801 68.2983 52.7642 67.7358 52.2415 67.0142C51.7244 66.2926 51.4318 65.4545 51.3636 64.5H53.5455C53.6023 65.1591 53.8239 65.7045 54.2102 66.1364C54.6023 66.5625 55.0966 66.8807 55.6932 67.0909C56.2955 67.2955 56.9432 67.3977 57.6364 67.3977C58.4432 67.3977 59.1676 67.267 59.8097 67.0057C60.4517 66.7386 60.9602 66.3693 61.3352 65.8977C61.7102 65.4205 61.8977 64.8636 61.8977 64.2273C61.8977 63.6477 61.7358 63.1761 61.4119 62.8125C61.0881 62.4489 60.6619 62.1534 60.1335 61.9261C59.6051 61.6989 59.0341 61.5 58.4205 61.3295L56.2727 60.7159C54.9091 60.3239 53.8295 59.7642 53.0341 59.0369C52.2386 58.3097 51.8409 57.358 51.8409 56.1818C51.8409 55.2045 52.1051 54.3523 52.6335 53.625C53.1676 52.892 53.8835 52.3239 54.7812 51.9205C55.6847 51.5114 56.6932 51.3068 57.8068 51.3068C58.9318 51.3068 59.9318 51.5085 60.8068 51.9119C61.6818 52.3097 62.375 52.8551 62.8864 53.5483C63.4034 54.2415 63.6761 55.0284 63.7045 55.9091H61.6591ZM69.157 61.125V69H67.1456V51.5455H69.157V57.9545H69.3274C69.6342 57.2784 70.0945 56.7415 70.7081 56.3438C71.3274 55.9403 72.1513 55.7386 73.1797 55.7386C74.0717 55.7386 74.853 55.9176 75.5234 56.2756C76.1939 56.6278 76.7138 57.1705 77.0831 57.9034C77.4581 58.6307 77.6456 59.5568 77.6456 60.6818V69H75.6342V60.8182C75.6342 59.7784 75.3643 58.9744 74.8246 58.4062C74.2905 57.8324 73.549 57.5455 72.6001 57.5455C71.9411 57.5455 71.3501 57.6847 70.8274 57.9631C70.3104 58.2415 69.9013 58.6477 69.6001 59.1818C69.3047 59.7159 69.157 60.3636 69.157 61.125ZM81.3253 69V55.9091H83.3366V69H81.3253ZM82.348 53.7273C81.956 53.7273 81.6179 53.5938 81.3338 53.3267C81.0554 53.0597 80.9162 52.7386 80.9162 52.3636C80.9162 51.9886 81.0554 51.6676 81.3338 51.4006C81.6179 51.1335 81.956 51 82.348 51C82.7401 51 83.0753 51.1335 83.3537 51.4006C83.6378 51.6676 83.7798 51.9886 83.7798 52.3636C83.7798 52.7386 83.6378 53.0597 83.3537 53.3267C83.0753 53.5938 82.7401 53.7273 82.348 53.7273ZM87.0206 73.9091V55.9091H88.9638V57.9886H89.2024C89.3501 57.7614 89.5547 57.4716 89.8161 57.1193C90.0831 56.7614 90.4638 56.4432 90.9581 56.1648C91.4581 55.8807 92.1342 55.7386 92.9865 55.7386C94.0888 55.7386 95.0604 56.0142 95.9013 56.5653C96.7422 57.1165 97.3984 57.8977 97.87 58.9091C98.3416 59.9205 98.5774 61.1136 98.5774 62.4886C98.5774 63.875 98.3416 65.0767 97.87 66.0938C97.3984 67.1051 96.745 67.8892 95.9098 68.446C95.0746 68.9972 94.1115 69.2727 93.0206 69.2727C92.1797 69.2727 91.5064 69.1335 91.0007 68.8551C90.495 68.571 90.1058 68.25 89.8331 67.892C89.5604 67.5284 89.3501 67.2273 89.2024 66.9886H89.032V73.9091H87.0206ZM88.9979 62.4545C88.9979 63.4432 89.1428 64.3153 89.4325 65.071C89.7223 65.821 90.1456 66.4091 90.7024 66.8352C91.2592 67.2557 91.9411 67.4659 92.7479 67.4659C93.5888 67.4659 94.2905 67.2443 94.853 66.8011C95.4212 66.3523 95.8473 65.75 96.1314 64.9943C96.4212 64.233 96.5661 63.3864 96.5661 62.4545C96.5661 61.5341 96.424 60.7045 96.1399 59.9659C95.8615 59.2216 95.4382 58.6335 94.87 58.2017C94.3075 57.7642 93.6001 57.5455 92.7479 57.5455C91.9297 57.5455 91.2422 57.7528 90.6854 58.1676C90.1286 58.5767 89.7081 59.1506 89.424 59.8892C89.1399 60.6222 88.9979 61.4773 88.9979 62.4545ZM102.472 73.9091C102.131 73.9091 101.827 73.8807 101.56 73.8239C101.293 73.7727 101.109 73.7216 101.006 73.6705L101.518 71.8977C102.006 72.0227 102.438 72.0682 102.813 72.0341C103.188 72 103.521 71.8324 103.81 71.5312C104.106 71.2358 104.376 70.7557 104.62 70.0909L104.995 69.0682L100.154 55.9091H102.336L105.95 66.3409H106.086L109.7 55.9091H111.881L106.325 70.9091C106.075 71.5852 105.765 72.1449 105.396 72.5881C105.026 73.0369 104.597 73.3693 104.109 73.5852C103.626 73.8011 103.08 73.9091 102.472 73.9091ZM117.99 69.3068C117.161 69.3068 116.408 69.1506 115.732 68.8381C115.055 68.5199 114.518 68.0625 114.121 67.4659C113.723 66.8636 113.524 66.1364 113.524 65.2841C113.524 64.5341 113.672 63.9261 113.967 63.4602C114.263 62.9886 114.658 62.6193 115.152 62.3523C115.646 62.0852 116.192 61.8864 116.788 61.7557C117.391 61.6193 117.996 61.5114 118.604 61.4318C119.399 61.3295 120.044 61.2528 120.538 61.2017C121.038 61.1449 121.402 61.0511 121.629 60.9205C121.862 60.7898 121.979 60.5625 121.979 60.2386V60.1705C121.979 59.3295 121.749 58.6761 121.288 58.2102C120.834 57.7443 120.143 57.5114 119.217 57.5114C118.257 57.5114 117.504 57.7216 116.959 58.142C116.413 58.5625 116.03 59.0114 115.808 59.4886L113.899 58.8068C114.24 58.0114 114.695 57.392 115.263 56.9489C115.837 56.5 116.462 56.1875 117.138 56.0114C117.82 55.8295 118.49 55.7386 119.149 55.7386C119.57 55.7386 120.053 55.7898 120.598 55.892C121.149 55.9886 121.68 56.1903 122.192 56.4972C122.709 56.804 123.138 57.267 123.479 57.8864C123.82 58.5057 123.99 59.3352 123.99 60.375V69H121.979V67.2273H121.876C121.74 67.5114 121.513 67.8153 121.195 68.1392C120.876 68.4631 120.453 68.7386 119.925 68.9659C119.396 69.1932 118.751 69.3068 117.99 69.3068ZM118.297 67.5C119.092 67.5 119.763 67.3438 120.308 67.0312C120.859 66.7188 121.274 66.3153 121.553 65.821C121.837 65.3267 121.979 64.8068 121.979 64.2614V62.4205C121.893 62.5227 121.706 62.6165 121.416 62.7017C121.132 62.7812 120.803 62.8523 120.428 62.9148C120.058 62.9716 119.697 63.0227 119.345 63.0682C118.999 63.108 118.717 63.142 118.501 63.1705C117.979 63.2386 117.49 63.3494 117.036 63.5028C116.587 63.6506 116.223 63.875 115.945 64.1761C115.672 64.4716 115.536 64.875 115.536 65.3864C115.536 66.0852 115.794 66.6136 116.311 66.9716C116.834 67.3239 117.496 67.5 118.297 67.5ZM127.661 69V55.9091H129.604V57.8864H129.741C129.979 57.2386 130.411 56.7131 131.036 56.3097C131.661 55.9062 132.366 55.7045 133.15 55.7045C133.298 55.7045 133.482 55.7074 133.704 55.7131C133.925 55.7187 134.093 55.7273 134.207 55.7386V57.7841C134.138 57.767 133.982 57.7415 133.738 57.7074C133.499 57.6676 133.246 57.6477 132.979 57.6477C132.343 57.6477 131.775 57.7812 131.275 58.0483C130.781 58.3097 130.388 58.6733 130.099 59.1392C129.815 59.5994 129.673 60.125 129.673 60.7159V69H127.661ZM141.136 69.2727C140.045 69.2727 139.082 68.9972 138.246 68.446C137.411 67.8892 136.758 67.1051 136.286 66.0938C135.815 65.0767 135.579 63.875 135.579 62.4886C135.579 61.1136 135.815 59.9205 136.286 58.9091C136.758 57.8977 137.414 57.1165 138.255 56.5653C139.096 56.0142 140.067 55.7386 141.17 55.7386C142.022 55.7386 142.695 55.8807 143.19 56.1648C143.69 56.4432 144.07 56.7614 144.332 57.1193C144.599 57.4716 144.806 57.7614 144.954 57.9886H145.124V51.5455H147.136V69H145.192V66.9886H144.954C144.806 67.2273 144.596 67.5284 144.323 67.892C144.05 68.25 143.661 68.571 143.156 68.8551C142.65 69.1335 141.977 69.2727 141.136 69.2727ZM141.408 67.4659C142.215 67.4659 142.897 67.2557 143.454 66.8352C144.011 66.4091 144.434 65.821 144.724 65.071C145.013 64.3153 145.158 63.4432 145.158 62.4545C145.158 61.4773 145.016 60.6222 144.732 59.8892C144.448 59.1506 144.028 58.5767 143.471 58.1676C142.914 57.7528 142.227 57.5455 141.408 57.5455C140.556 57.5455 139.846 57.7642 139.278 58.2017C138.715 58.6335 138.292 59.2216 138.008 59.9659C137.729 60.7045 137.59 61.5341 137.59 62.4545C137.59 63.3864 137.732 64.233 138.016 64.9943C138.306 65.75 138.732 66.3523 139.295 66.8011C139.863 67.2443 140.567 67.4659 141.408 67.4659Z" fill="white"/>
</g>
<defs>
<clipPath id="clip0_670_31">
<rect width="204" height="83" fill="white"/>
</clipPath>
</defs>
</svg>
