<svg width="165" height="38" viewBox="0 0 165 38" fill="none" xmlns="http://www.w3.org/2000/svg">
<rect x="1" y="5" width="28" height="28" rx="14" stroke="#222214" stroke-width="2"/>
<rect x="2.68555" y="6.68555" width="24.629" height="24.629" rx="12.3145" fill="#222214"/>
<rect x="2.68555" y="6.68555" width="24.629" height="24.629" rx="12.3145" stroke="#F5F5F4" stroke-width="1.5"/>
<path d="M54.8463 23.974C55.5063 23.974 56.0893 23.842 56.5953 23.578C57.1013 23.314 57.5193 22.962 57.8493 22.522C58.1793 22.082 58.4213 21.587 58.5753 21.037C58.7513 20.465 58.8393 19.871 58.8393 19.255C58.8393 18.551 58.7733 17.891 58.6413 17.275C58.5093 16.637 58.2893 16.076 57.9813 15.592C57.6733 15.108 57.2663 14.723 56.7603 14.437C56.2543 14.151 55.6163 14.008 54.8463 14.008C54.1863 14.008 53.6143 14.14 53.1303 14.404C52.6683 14.668 52.2723 15.031 51.9423 15.493C51.6343 15.933 51.4033 16.45 51.2493 17.044C51.1173 17.616 51.0513 18.221 51.0513 18.859C51.0513 19.475 51.1063 20.091 51.2163 20.707C51.3483 21.301 51.5573 21.84 51.8433 22.324C52.1513 22.808 52.5473 23.204 53.0313 23.512C53.5153 23.82 54.1203 23.974 54.8463 23.974ZM63.2943 26.911C63.2943 27.593 63.1953 28.374 62.9973 29.254C62.8213 30.134 62.4253 30.948 61.8093 31.696C61.1933 32.466 60.3023 33.115 59.1363 33.643C57.9703 34.171 56.4083 34.435 54.4503 34.435C53.6143 34.435 52.7563 34.325 51.8763 34.105C51.0183 33.907 50.2263 33.588 49.5003 33.148C48.7963 32.708 48.2023 32.136 47.7183 31.432C47.2563 30.75 46.9923 29.925 46.9263 28.957H51.5793C51.7993 29.837 52.2283 30.442 52.8663 30.772C53.5043 31.124 54.2413 31.3 55.0773 31.3C56.3973 31.3 57.3543 30.904 57.9483 30.112C58.5643 29.32 58.8613 28.319 58.8393 27.109V24.865H58.7733C58.2673 25.767 57.5413 26.438 56.5953 26.878C55.6713 27.296 54.6923 27.505 53.6583 27.505C52.3823 27.505 51.2823 27.285 50.3583 26.845C49.4343 26.383 48.6753 25.767 48.0813 24.997C47.4873 24.205 47.0473 23.292 46.7613 22.258C46.4973 21.202 46.3653 20.091 46.3653 18.925C46.3653 17.825 46.5193 16.769 46.8273 15.757C47.1573 14.723 47.6303 13.821 48.2463 13.051C48.8623 12.259 49.6213 11.632 50.5233 11.17C51.4473 10.708 52.5033 10.477 53.6913 10.477C54.8133 10.477 55.7923 10.686 56.6283 11.104C57.4863 11.522 58.2013 12.226 58.7733 13.216H58.8393V10.939H63.2943V26.911ZM69.7402 8.299H65.0542V4.438H69.7402V8.299ZM65.0542 10.939H69.7402V28H65.0542V10.939ZM78.05 10.939H81.482V14.074H78.05V22.522C78.05 23.314 78.182 23.842 78.446 24.106C78.71 24.37 79.238 24.502 80.03 24.502C80.294 24.502 80.547 24.491 80.789 24.469C81.031 24.447 81.262 24.414 81.482 24.37V28C81.086 28.066 80.646 28.11 80.162 28.132C79.678 28.154 79.205 28.165 78.743 28.165C78.017 28.165 77.324 28.11 76.664 28C76.026 27.912 75.454 27.725 74.948 27.439C74.464 27.153 74.079 26.746 73.793 26.218C73.507 25.69 73.364 24.997 73.364 24.139V14.074H70.526V10.939H73.364V5.824H78.05V10.939ZM101.574 28H96.7564L93.7204 16.549H93.6544L90.7504 28H85.8994L80.4874 10.939H85.4374L88.5724 22.522H88.6384L91.4764 10.939H96.0304L98.9344 22.489H99.0004L102.135 10.939H106.953L101.574 28ZM106.275 16.186C106.341 15.086 106.616 14.173 107.1 13.447C107.584 12.721 108.2 12.138 108.948 11.698C109.696 11.258 110.532 10.95 111.456 10.774C112.402 10.576 113.348 10.477 114.294 10.477C115.152 10.477 116.021 10.543 116.901 10.675C117.781 10.785 118.584 11.016 119.31 11.368C120.036 11.72 120.63 12.215 121.092 12.853C121.554 13.469 121.785 14.294 121.785 15.328V24.205C121.785 24.975 121.829 25.712 121.917 26.416C122.005 27.12 122.159 27.648 122.379 28H117.627C117.539 27.736 117.462 27.472 117.396 27.208C117.352 26.922 117.319 26.636 117.297 26.35C116.549 27.12 115.669 27.659 114.657 27.967C113.645 28.275 112.611 28.429 111.555 28.429C110.741 28.429 109.982 28.33 109.278 28.132C108.574 27.934 107.958 27.626 107.43 27.208C106.902 26.79 106.484 26.262 106.176 25.624C105.89 24.986 105.747 24.227 105.747 23.347C105.747 22.379 105.912 21.587 106.242 20.971C106.594 20.333 107.034 19.827 107.562 19.453C108.112 19.079 108.728 18.804 109.41 18.628C110.114 18.43 110.818 18.276 111.522 18.166C112.226 18.056 112.919 17.968 113.601 17.902C114.283 17.836 114.888 17.737 115.416 17.605C115.944 17.473 116.362 17.286 116.67 17.044C116.978 16.78 117.121 16.406 117.099 15.922C117.099 15.416 117.011 15.02 116.835 14.734C116.681 14.426 116.461 14.195 116.175 14.041C115.911 13.865 115.592 13.755 115.218 13.711C114.866 13.645 114.481 13.612 114.063 13.612C113.139 13.612 112.413 13.81 111.885 14.206C111.357 14.602 111.049 15.262 110.961 16.186H106.275ZM117.099 19.651C116.901 19.827 116.648 19.97 116.34 20.08C116.054 20.168 115.735 20.245 115.383 20.311C115.053 20.377 114.701 20.432 114.327 20.476C113.953 20.52 113.579 20.575 113.205 20.641C112.853 20.707 112.501 20.795 112.149 20.905C111.819 21.015 111.522 21.169 111.258 21.367C111.016 21.543 110.818 21.774 110.664 22.06C110.51 22.346 110.433 22.709 110.433 23.149C110.433 23.567 110.51 23.919 110.664 24.205C110.818 24.491 111.027 24.722 111.291 24.898C111.555 25.052 111.863 25.162 112.215 25.228C112.567 25.294 112.93 25.327 113.304 25.327C114.228 25.327 114.943 25.173 115.449 24.865C115.955 24.557 116.329 24.194 116.571 23.776C116.813 23.336 116.956 22.896 117 22.456C117.066 22.016 117.099 21.664 117.099 21.4V19.651ZM123.74 4.438H128.426V28H123.74V4.438ZM130.432 4.438H135.118V28H130.432V4.438ZM148.147 17.638C147.927 16.45 147.531 15.548 146.959 14.932C146.409 14.316 145.562 14.008 144.418 14.008C143.67 14.008 143.043 14.14 142.537 14.404C142.053 14.646 141.657 14.954 141.349 15.328C141.063 15.702 140.854 16.098 140.722 16.516C140.612 16.934 140.546 17.308 140.524 17.638H148.147ZM140.524 20.608C140.59 22.126 140.975 23.226 141.679 23.908C142.383 24.59 143.395 24.931 144.715 24.931C145.661 24.931 146.475 24.7 147.157 24.238C147.839 23.754 148.257 23.248 148.411 22.72H152.536C151.876 24.766 150.864 26.229 149.5 27.109C148.136 27.989 146.486 28.429 144.55 28.429C143.208 28.429 141.998 28.22 140.92 27.802C139.842 27.362 138.929 26.746 138.181 25.954C137.433 25.162 136.85 24.216 136.432 23.116C136.036 22.016 135.838 20.806 135.838 19.486C135.838 18.21 136.047 17.022 136.465 15.922C136.883 14.822 137.477 13.876 138.247 13.084C139.017 12.27 139.93 11.632 140.986 11.17C142.064 10.708 143.252 10.477 144.55 10.477C146.002 10.477 147.267 10.763 148.345 11.335C149.423 11.885 150.303 12.633 150.985 13.579C151.689 14.525 152.195 15.603 152.503 16.813C152.811 18.023 152.921 19.288 152.833 20.608H140.524ZM159.407 10.939H162.839V14.074H159.407V22.522C159.407 23.314 159.539 23.842 159.803 24.106C160.067 24.37 160.595 24.502 161.387 24.502C161.651 24.502 161.904 24.491 162.146 24.469C162.388 24.447 162.619 24.414 162.839 24.37V28C162.443 28.066 162.003 28.11 161.519 28.132C161.035 28.154 160.562 28.165 160.1 28.165C159.374 28.165 158.681 28.11 158.021 28C157.383 27.912 156.811 27.725 156.305 27.439C155.821 27.153 155.436 26.746 155.15 26.218C154.864 25.69 154.721 24.997 154.721 24.139V14.074H151.883V10.939H154.721V5.824H159.407V10.939Z" fill="#222214"/>
</svg>
