<svg width="106" height="33" viewBox="0 0 106 33" fill="none" xmlns="http://www.w3.org/2000/svg">
<rect x="3.74834" y="6.83496" width="18.4167" height="18.4167" rx="9.20833" fill="white"/>
<path d="M26 16C26 23.1797 20.1797 29 13 29C5.8203 29 0 23.1797 0 16C0 8.8203 5.8203 3 13 3C20.1797 3 26 8.8203 26 16ZM1.72671 16C1.72671 22.2261 6.77393 27.2733 13 27.2733C19.2261 27.2733 24.2733 22.2261 24.2733 16C24.2733 9.77393 19.2261 4.72671 13 4.72671C6.77393 4.72671 1.72671 9.77393 1.72671 16Z" fill="white"/>
<path d="M86.0769 14.498C86.0769 14.913 86.117 15.3213 86.1974 15.7229C86.2777 16.1111 86.4116 16.4659 86.599 16.7871C86.7998 17.095 87.0608 17.3427 87.3821 17.5301C87.7034 17.7175 88.105 17.8112 88.5869 17.8112C89.0689 17.8112 89.4705 17.7175 89.7917 17.5301C90.1264 17.3427 90.3875 17.095 90.5749 16.7871C90.7757 16.4659 90.9162 16.1111 90.9966 15.7229C91.0769 15.3213 91.117 14.913 91.117 14.498C91.117 14.083 91.0769 13.6747 90.9966 13.2731C90.9162 12.8715 90.7757 12.5167 90.5749 12.2088C90.3875 11.9009 90.1264 11.6533 89.7917 11.4659C89.4705 11.265 89.0689 11.1646 88.5869 11.1646C88.105 11.1646 87.7034 11.265 87.3821 11.4659C87.0608 11.6533 86.7998 11.9009 86.599 12.2088C86.4116 12.5167 86.2777 12.8715 86.1974 13.2731C86.117 13.6747 86.0769 14.083 86.0769 14.498ZM83.2255 14.498C83.2255 13.668 83.3527 12.9183 83.607 12.249C83.8614 11.5663 84.2228 10.9906 84.6913 10.5221C85.1599 10.0401 85.7221 9.67201 86.3781 9.41766C87.034 9.14992 87.7703 9.01605 88.5869 9.01605C89.4035 9.01605 90.1398 9.14992 90.7958 9.41766C91.4651 9.67201 92.034 10.0401 92.5026 10.5221C92.9711 10.9906 93.3326 11.5663 93.5869 12.249C93.8413 12.9183 93.9684 13.668 93.9684 14.498C93.9684 15.328 93.8413 16.0776 93.5869 16.747C93.3326 17.4163 92.9711 17.992 92.5026 18.4739C92.034 18.9424 91.4651 19.3039 90.7958 19.5582C90.1398 19.8126 89.4035 19.9397 88.5869 19.9397C87.7703 19.9397 87.034 19.8126 86.3781 19.5582C85.7221 19.3039 85.1599 18.9424 84.6913 18.4739C84.2228 17.992 83.8614 17.4163 83.607 16.747C83.3527 16.0776 83.2255 15.328 83.2255 14.498Z" fill="white"/>
<path d="M81.9039 7.69077H79.0525V5.34137H81.9039V7.69077ZM79.0525 9.29719H81.9039V19.6787H79.0525V9.29719Z" fill="white"/>
<path d="M74.6685 14.4578C74.6685 14.0295 74.6283 13.6212 74.548 13.2329C74.4676 12.8313 74.3271 12.4833 74.1263 12.1888C73.9389 11.8809 73.6912 11.6332 73.3833 11.4458C73.0754 11.2584 72.6872 11.1647 72.2187 11.1647C71.7501 11.1647 71.3552 11.2584 71.0339 11.4458C70.7126 11.6332 70.4516 11.8809 70.2508 12.1888C70.0634 12.4967 69.9228 12.8514 69.8291 13.253C69.7488 13.6412 69.7086 14.0495 69.7086 14.4779C69.7086 14.8795 69.7555 15.2811 69.8492 15.6827C69.9429 16.0843 70.0901 16.4458 70.2909 16.7671C70.5051 17.075 70.7662 17.3293 71.0741 17.5301C71.3954 17.7175 71.7769 17.8112 72.2187 17.8112C72.6872 17.8112 73.0754 17.7175 73.3833 17.5301C73.7046 17.3427 73.9589 17.0951 74.1464 16.7872C74.3338 16.4659 74.4676 16.1044 74.548 15.7028C74.6283 15.3012 74.6685 14.8862 74.6685 14.4578ZM74.7086 18.3534H74.6685C74.3338 18.9157 73.892 19.324 73.3432 19.5783C72.8077 19.8193 72.1986 19.9398 71.5158 19.9398C70.7394 19.9398 70.0567 19.7925 69.4676 19.498C68.8786 19.1901 68.39 18.7818 68.0018 18.2731C67.627 17.751 67.3391 17.1553 67.1383 16.4859C66.9509 15.8166 66.8572 15.1205 66.8572 14.3976C66.8572 13.7015 66.9509 13.0321 67.1383 12.3896C67.3391 11.7336 67.627 11.158 68.0018 10.6627C68.39 10.1673 68.8719 9.77243 69.4476 9.47792C70.0232 9.17002 70.6925 9.01607 71.4556 9.01607C72.0714 9.01607 72.6537 9.14994 73.2026 9.41767C73.7648 9.67203 74.2066 10.0536 74.5279 10.5623H74.5681V5.34137H77.4195V19.6787H74.7086V18.3534Z" fill="white"/>
<path d="M65.7372 19.6788H63.0264V18.233H62.9662C62.6047 18.8354 62.1362 19.2705 61.5605 19.5382C60.9849 19.8059 60.3959 19.9398 59.7935 19.9398C59.0304 19.9398 58.4012 19.8394 57.9059 19.6386C57.424 19.4378 57.0425 19.1567 56.7613 18.7952C56.4802 18.4204 56.2794 17.9719 56.1589 17.4499C56.0518 16.9144 55.9983 16.3254 55.9983 15.6828V9.29724H58.8497V15.1607C58.8497 16.0175 58.9836 16.66 59.2513 17.0884C59.519 17.5034 59.9943 17.7109 60.677 17.7109C61.4534 17.7109 62.0157 17.4833 62.3638 17.0282C62.7118 16.5596 62.8858 15.7966 62.8858 14.739V9.29724H65.7372V19.6788Z" fill="white"/>
<path d="M53.1557 9.2972H55.244V11.2048H53.1557V16.3454C53.1557 16.8273 53.236 17.1486 53.3966 17.3093C53.5573 17.4699 53.8786 17.5502 54.3605 17.5502C54.5211 17.5502 54.6751 17.5435 54.8223 17.5301C54.9696 17.5167 55.1102 17.4967 55.244 17.4699V19.6787C55.0031 19.7189 54.7353 19.7457 54.4408 19.7591C54.1463 19.7724 53.8585 19.7791 53.5774 19.7791C53.1356 19.7791 52.7139 19.7457 52.3123 19.6787C51.9241 19.6252 51.576 19.5114 51.2681 19.3374C50.9736 19.1633 50.7393 18.9157 50.5653 18.5944C50.3913 18.2731 50.3043 17.8514 50.3043 17.3293V11.2048H48.5774V9.2972H50.3043V6.18475H53.1557V9.2972Z" fill="white"/>
<path d="M39.553 14.9197C39.553 15.4016 39.64 15.8099 39.814 16.1446C39.9881 16.4792 40.2156 16.7537 40.4968 16.9679C40.7913 17.1687 41.1326 17.3226 41.5209 17.4297C41.9091 17.5234 42.3107 17.5703 42.7257 17.5703C43.0068 17.5703 43.308 17.5502 43.6293 17.51C43.9506 17.4565 44.2518 17.3628 44.5329 17.2289C44.814 17.095 45.0483 16.9143 45.2357 16.6867C45.4231 16.4458 45.5168 16.1446 45.5168 15.7831C45.5168 15.3949 45.3897 15.0803 45.1353 14.8394C44.8943 14.5984 44.5731 14.3976 44.1715 14.2369C43.7698 14.0763 43.3147 13.9357 42.806 13.8153C42.2973 13.6948 41.7819 13.5609 41.2598 13.4137C40.7243 13.2798 40.2022 13.1191 39.6935 12.9317C39.1848 12.7309 38.7297 12.4766 38.3281 12.1687C37.9265 11.8608 37.5985 11.4792 37.3441 11.0241C37.1032 10.5556 36.9827 9.99331 36.9827 9.33735C36.9827 8.60107 37.1366 7.96519 37.4445 7.42972C37.7658 6.88086 38.1808 6.4257 38.6895 6.06426C39.1982 5.70281 39.7739 5.43507 40.4164 5.26104C41.059 5.08701 41.7016 5 42.3441 5C43.0938 5 43.81 5.08701 44.4927 5.26104C45.1889 5.42169 45.8047 5.68942 46.3401 6.06426C46.8756 6.43909 47.2973 6.92102 47.6052 7.51004C47.9265 8.08568 48.0871 8.78849 48.0871 9.61847H45.0349C45.0081 9.19009 44.9144 8.83534 44.7538 8.55422C44.6065 8.27309 44.4057 8.05221 44.1514 7.89157C43.897 7.73092 43.6025 7.61713 43.2678 7.5502C42.9466 7.48327 42.5918 7.4498 42.2036 7.4498C41.9492 7.4498 41.6949 7.47657 41.4405 7.53012C41.1862 7.58367 40.9519 7.67738 40.7377 7.81124C40.5369 7.94511 40.3696 8.11245 40.2357 8.31325C40.1018 8.51406 40.0349 8.76841 40.0349 9.07631C40.0349 9.35743 40.0885 9.58501 40.1956 9.75904C40.3026 9.93306 40.5101 10.0937 40.818 10.241C41.1393 10.3882 41.5744 10.5355 42.1233 10.6827C42.6855 10.83 43.4151 11.0174 44.312 11.245C44.5798 11.2985 44.9479 11.3989 45.4164 11.5462C45.8984 11.6801 46.3736 11.9009 46.8421 12.2088C47.3107 12.5167 47.7123 12.9317 48.047 13.4538C48.395 13.9625 48.569 14.6185 48.569 15.4217C48.569 16.0776 48.4419 16.6867 48.1875 17.249C47.9332 17.8112 47.5516 18.2999 47.0429 18.7149C46.5476 19.1165 45.9251 19.4311 45.1755 19.6586C44.4392 19.8862 43.5824 20 42.6052 20C41.8154 20 41.0456 19.8996 40.296 19.6988C39.5597 19.5114 38.9037 19.2102 38.3281 18.7952C37.7658 18.3802 37.3174 17.8514 36.9827 17.2088C36.648 16.5663 36.4874 15.8032 36.5008 14.9197H39.553Z" fill="white"/>
<path d="M40.9263 28.42C40.9263 28.2 40.903 27.99 40.8563 27.79C40.8096 27.59 40.7363 27.4133 40.6363 27.26C40.5363 27.1067 40.4096 26.9867 40.2563 26.9C40.1096 26.8067 39.9296 26.76 39.7163 26.76C39.5096 26.76 39.3296 26.8067 39.1763 26.9C39.023 26.9867 38.8963 27.1067 38.7963 27.26C38.6963 27.4133 38.623 27.59 38.5763 27.79C38.5296 27.99 38.5063 28.2 38.5063 28.42C38.5063 28.6333 38.5296 28.84 38.5763 29.04C38.623 29.24 38.6963 29.4167 38.7963 29.57C38.8963 29.7233 39.023 29.8467 39.1763 29.94C39.3296 30.0267 39.5096 30.07 39.7163 30.07C39.9296 30.07 40.1096 30.0267 40.2563 29.94C40.4096 29.8467 40.5363 29.7233 40.6363 29.57C40.7363 29.4167 40.8096 29.24 40.8563 29.04C40.903 28.84 40.9263 28.6333 40.9263 28.42ZM37.1363 23.86H38.5563V26.46H38.5763C38.7496 26.1933 38.983 26 39.2763 25.88C39.5763 25.7533 39.8863 25.69 40.2063 25.69C40.4663 25.69 40.723 25.7433 40.9763 25.85C41.2296 25.9567 41.4563 26.12 41.6563 26.34C41.863 26.56 42.0296 26.8433 42.1563 27.19C42.283 27.53 42.3463 27.9367 42.3463 28.41C42.3463 28.8833 42.283 29.2933 42.1563 29.64C42.0296 29.98 41.863 30.26 41.6563 30.48C41.4563 30.7 41.2296 30.8633 40.9763 30.97C40.723 31.0767 40.4663 31.13 40.2063 31.13C39.8263 31.13 39.4863 31.07 39.1863 30.95C38.8863 30.83 38.6596 30.6267 38.5063 30.34H38.4863V31H37.1363V23.86ZM45.8996 31.64C45.7462 32.06 45.5329 32.36 45.2596 32.54C44.9862 32.72 44.6062 32.81 44.1196 32.81C43.9729 32.81 43.8262 32.8033 43.6796 32.79C43.5396 32.7833 43.3962 32.7733 43.2496 32.76V31.59C43.3829 31.6033 43.5196 31.6167 43.6596 31.63C43.7996 31.6433 43.9396 31.6467 44.0796 31.64C44.2662 31.62 44.4029 31.5467 44.4896 31.42C44.5829 31.2933 44.6296 31.1533 44.6296 31C44.6296 30.8867 44.6096 30.78 44.5696 30.68L42.7596 25.83H44.2696L45.4396 29.37H45.4596L46.5896 25.83H48.0596L45.8996 31.64ZM51.5583 25.83H52.8983V26.53H52.9183C53.105 26.2633 53.3283 26.0567 53.5883 25.91C53.855 25.7633 54.1583 25.69 54.4983 25.69C54.825 25.69 55.1217 25.7533 55.3883 25.88C55.6617 26.0067 55.8683 26.23 56.0083 26.55C56.1617 26.3233 56.3683 26.1233 56.6283 25.95C56.895 25.7767 57.2083 25.69 57.5683 25.69C57.8417 25.69 58.095 25.7233 58.3283 25.79C58.5617 25.8567 58.7617 25.9633 58.9283 26.11C59.095 26.2567 59.225 26.45 59.3183 26.69C59.4117 26.9233 59.4583 27.2067 59.4583 27.54V31H58.0383V28.07C58.0383 27.8967 58.0317 27.7333 58.0183 27.58C58.005 27.4267 57.9683 27.2933 57.9083 27.18C57.8483 27.0667 57.7583 26.9767 57.6383 26.91C57.525 26.8433 57.3683 26.81 57.1683 26.81C56.9683 26.81 56.805 26.85 56.6783 26.93C56.5583 27.0033 56.4617 27.1033 56.3883 27.23C56.3217 27.35 56.275 27.49 56.2483 27.65C56.2283 27.8033 56.2183 27.96 56.2183 28.12V31H54.7983V28.1C54.7983 27.9467 54.795 27.7967 54.7883 27.65C54.7817 27.4967 54.7517 27.3567 54.6983 27.23C54.6517 27.1033 54.5683 27.0033 54.4483 26.93C54.335 26.85 54.165 26.81 53.9383 26.81C53.8717 26.81 53.7817 26.8267 53.6683 26.86C53.5617 26.8867 53.455 26.9433 53.3483 27.03C53.2483 27.11 53.1617 27.23 53.0883 27.39C53.015 27.5433 52.9783 27.7467 52.9783 28V31H51.5583V25.83ZM60.6208 27.42C60.6408 27.0867 60.7242 26.81 60.8708 26.59C61.0175 26.37 61.2042 26.1933 61.4308 26.06C61.6575 25.9267 61.9108 25.8333 62.1908 25.78C62.4775 25.72 62.7642 25.69 63.0508 25.69C63.3108 25.69 63.5742 25.71 63.8408 25.75C64.1075 25.7833 64.3508 25.8533 64.5708 25.96C64.7908 26.0667 64.9708 26.2167 65.1108 26.41C65.2508 26.5967 65.3208 26.8467 65.3208 27.16V29.85C65.3208 30.0833 65.3342 30.3067 65.3608 30.52C65.3875 30.7333 65.4342 30.8933 65.5008 31H64.0608C64.0342 30.92 64.0108 30.84 63.9908 30.76C63.9775 30.6733 63.9675 30.5867 63.9608 30.5C63.7342 30.7333 63.4675 30.8967 63.1608 30.99C62.8542 31.0833 62.5408 31.13 62.2208 31.13C61.9742 31.13 61.7442 31.1 61.5308 31.04C61.3175 30.98 61.1308 30.8867 60.9708 30.76C60.8108 30.6333 60.6842 30.4733 60.5908 30.28C60.5042 30.0867 60.4608 29.8567 60.4608 29.59C60.4608 29.2967 60.5108 29.0567 60.6108 28.87C60.7175 28.6767 60.8508 28.5233 61.0108 28.41C61.1775 28.2967 61.3642 28.2133 61.5708 28.16C61.7842 28.1 61.9975 28.0533 62.2108 28.02C62.4242 27.9867 62.6342 27.96 62.8408 27.94C63.0475 27.92 63.2308 27.89 63.3908 27.85C63.5508 27.81 63.6775 27.7533 63.7708 27.68C63.8642 27.6 63.9075 27.4867 63.9008 27.34C63.9008 27.1867 63.8742 27.0667 63.8208 26.98C63.7742 26.8867 63.7075 26.8167 63.6208 26.77C63.5408 26.7167 63.4442 26.6833 63.3308 26.67C63.2242 26.65 63.1075 26.64 62.9808 26.64C62.7008 26.64 62.4808 26.7 62.3208 26.82C62.1608 26.94 62.0675 27.14 62.0408 27.42H60.6208ZM63.9008 28.47C63.8408 28.5233 63.7642 28.5667 63.6708 28.6C63.5842 28.6267 63.4875 28.65 63.3808 28.67C63.2808 28.69 63.1742 28.7067 63.0608 28.72C62.9475 28.7333 62.8342 28.75 62.7208 28.77C62.6142 28.79 62.5075 28.8167 62.4008 28.85C62.3008 28.8833 62.2108 28.93 62.1308 28.99C62.0575 29.0433 61.9975 29.1133 61.9508 29.2C61.9042 29.2867 61.8808 29.3967 61.8808 29.53C61.8808 29.6567 61.9042 29.7633 61.9508 29.85C61.9975 29.9367 62.0608 30.0067 62.1408 30.06C62.2208 30.1067 62.3142 30.14 62.4208 30.16C62.5275 30.18 62.6375 30.19 62.7508 30.19C63.0308 30.19 63.2475 30.1433 63.4008 30.05C63.5542 29.9567 63.6675 29.8467 63.7408 29.72C63.8142 29.5867 63.8575 29.4533 63.8708 29.32C63.8908 29.1867 63.9008 29.08 63.9008 29V28.47ZM66.523 25.83H67.873V26.79H67.893C67.9597 26.63 68.0497 26.4833 68.163 26.35C68.2763 26.21 68.4063 26.0933 68.553 26C68.6997 25.9 68.8563 25.8233 69.023 25.77C69.1897 25.7167 69.363 25.69 69.543 25.69C69.6363 25.69 69.7397 25.7067 69.853 25.74V27.06C69.7863 27.0467 69.7063 27.0367 69.613 27.03C69.5197 27.0167 69.4297 27.01 69.343 27.01C69.083 27.01 68.863 27.0533 68.683 27.14C68.503 27.2267 68.3563 27.3467 68.243 27.5C68.1363 27.6467 68.0597 27.82 68.013 28.02C67.9663 28.22 67.943 28.4367 67.943 28.67V31H66.523V25.83ZM70.6397 23.86H72.0597V27.69L73.8497 25.83H75.5297L73.5797 27.73L75.7497 31H74.0297L72.6097 28.69L72.0597 29.22V31H70.6397V23.86ZM79.8319 27.86C79.7652 27.5 79.6452 27.2267 79.4719 27.04C79.3052 26.8533 79.0486 26.76 78.7019 26.76C78.4752 26.76 78.2852 26.8 78.1319 26.88C77.9852 26.9533 77.8652 27.0467 77.7719 27.16C77.6852 27.2733 77.6219 27.3933 77.5819 27.52C77.5486 27.6467 77.5286 27.76 77.5219 27.86H79.8319ZM77.5219 28.76C77.5419 29.22 77.6586 29.5533 77.8719 29.76C78.0852 29.9667 78.3919 30.07 78.7919 30.07C79.0786 30.07 79.3252 30 79.5319 29.86C79.7386 29.7133 79.8652 29.56 79.9119 29.4H81.1619C80.9619 30.02 80.6552 30.4633 80.2419 30.73C79.8286 30.9967 79.3286 31.13 78.7419 31.13C78.3352 31.13 77.9686 31.0667 77.6419 30.94C77.3152 30.8067 77.0386 30.62 76.8119 30.38C76.5852 30.14 76.4086 29.8533 76.2819 29.52C76.1619 29.1867 76.1019 28.82 76.1019 28.42C76.1019 28.0333 76.1652 27.6733 76.2919 27.34C76.4186 27.0067 76.5986 26.72 76.8319 26.48C77.0652 26.2333 77.3419 26.04 77.6619 25.9C77.9886 25.76 78.3486 25.69 78.7419 25.69C79.1819 25.69 79.5652 25.7767 79.8919 25.95C80.2186 26.1167 80.4852 26.3433 80.6919 26.63C80.9053 26.9167 81.0586 27.2433 81.1519 27.61C81.2453 27.9767 81.2786 28.36 81.2519 28.76H77.5219ZM83.9941 25.83H85.0341V26.78H83.9941V29.34C83.9941 29.58 84.0341 29.74 84.1141 29.82C84.1941 29.9 84.3541 29.94 84.5941 29.94C84.6741 29.94 84.7508 29.9367 84.8241 29.93C84.8974 29.9233 84.9674 29.9133 85.0341 29.9V31C84.9141 31.02 84.7808 31.0333 84.6341 31.04C84.4874 31.0467 84.3441 31.05 84.2041 31.05C83.9841 31.05 83.7741 31.0333 83.5741 31C83.3808 30.9733 83.2074 30.9167 83.0541 30.83C82.9074 30.7433 82.7908 30.62 82.7041 30.46C82.6174 30.3 82.5741 30.09 82.5741 29.83V26.78H81.7141V25.83H82.5741V24.28H83.9941V25.83ZM85.8697 29.46H87.4397V31H85.8697V29.46ZM92.3629 28.4C92.3629 28.1867 92.3429 27.9833 92.3029 27.79C92.2629 27.59 92.1929 27.4167 92.0929 27.27C91.9996 27.1167 91.8763 26.9933 91.7229 26.9C91.5696 26.8067 91.3763 26.76 91.1429 26.76C90.9096 26.76 90.7129 26.8067 90.5529 26.9C90.3929 26.9933 90.2629 27.1167 90.1629 27.27C90.0696 27.4233 89.9996 27.6 89.9529 27.8C89.9129 27.9933 89.8929 28.1967 89.8929 28.41C89.8929 28.61 89.9163 28.81 89.9629 29.01C90.0096 29.21 90.0829 29.39 90.1829 29.55C90.2896 29.7033 90.4196 29.83 90.5729 29.93C90.7329 30.0233 90.9229 30.07 91.1429 30.07C91.3763 30.07 91.5696 30.0233 91.7229 29.93C91.8829 29.8367 92.0096 29.7133 92.1029 29.56C92.1963 29.4 92.2629 29.22 92.3029 29.02C92.3429 28.82 92.3629 28.6133 92.3629 28.4ZM92.3829 30.34H92.3629C92.1963 30.62 91.9763 30.8233 91.7029 30.95C91.4363 31.07 91.1329 31.13 90.7929 31.13C90.4063 31.13 90.0663 31.0567 89.7729 30.91C89.4796 30.7567 89.2363 30.5533 89.0429 30.3C88.8563 30.04 88.7129 29.7433 88.6129 29.41C88.5196 29.0767 88.4729 28.73 88.4729 28.37C88.4729 28.0233 88.5196 27.69 88.6129 27.37C88.7129 27.0433 88.8563 26.7567 89.0429 26.51C89.2363 26.2633 89.4763 26.0667 89.7629 25.92C90.0496 25.7667 90.3829 25.69 90.7629 25.69C91.0696 25.69 91.3596 25.7567 91.6329 25.89C91.9129 26.0167 92.1329 26.2067 92.2929 26.46H92.3129V23.86H93.7329V31H92.3829V30.34ZM98.3862 27.86C98.3195 27.5 98.1995 27.2267 98.0262 27.04C97.8595 26.8533 97.6029 26.76 97.2562 26.76C97.0295 26.76 96.8395 26.8 96.6862 26.88C96.5395 26.9533 96.4195 27.0467 96.3262 27.16C96.2395 27.2733 96.1762 27.3933 96.1362 27.52C96.1029 27.6467 96.0829 27.76 96.0762 27.86H98.3862ZM96.0762 28.76C96.0962 29.22 96.2129 29.5533 96.4262 29.76C96.6395 29.9667 96.9462 30.07 97.3462 30.07C97.6329 30.07 97.8795 30 98.0862 29.86C98.2929 29.7133 98.4195 29.56 98.4662 29.4H99.7162C99.5162 30.02 99.2095 30.4633 98.7962 30.73C98.3829 30.9967 97.8829 31.13 97.2962 31.13C96.8895 31.13 96.5229 31.0667 96.1962 30.94C95.8695 30.8067 95.5929 30.62 95.3662 30.38C95.1395 30.14 94.9629 29.8533 94.8362 29.52C94.7162 29.1867 94.6562 28.82 94.6562 28.42C94.6562 28.0333 94.7195 27.6733 94.8462 27.34C94.9729 27.0067 95.1529 26.72 95.3862 26.48C95.6195 26.2333 95.8962 26.04 96.2162 25.9C96.5429 25.76 96.9029 25.69 97.2962 25.69C97.7362 25.69 98.1195 25.7767 98.4462 25.95C98.7729 26.1167 99.0395 26.3433 99.2462 26.63C99.4595 26.9167 99.6129 27.2433 99.7062 27.61C99.7995 27.9767 99.8329 28.36 99.8062 28.76H96.0762ZM103.608 31H102.028L100.258 25.83H101.748L102.838 29.36H102.858L103.948 25.83H105.358L103.608 31Z" fill="white"/>
</svg>
