<svg width="103" height="32" viewBox="0 0 103 32" fill="none" xmlns="http://www.w3.org/2000/svg">
<rect x="3.70996" y="7.79004" width="16.5" height="16.5" rx="8.25" fill="white"/>
<path d="M24 16C24 22.6274 18.6274 28 12 28C5.37258 28 0 22.6274 0 16C0 9.37258 5.37258 4 12 4C18.6274 4 24 9.37258 24 16ZM1.59388 16C1.59388 21.7471 6.25286 26.4061 12 26.4061C17.7471 26.4061 22.4061 21.7471 22.4061 16C22.4061 10.2529 17.7471 5.59388 12 5.59388C6.25286 5.59388 1.59388 10.2529 1.59388 16Z" fill="white"/>
<path d="M93.2543 18.3879C93.2543 18.8839 93.3023 19.3719 93.3983 19.8519C93.4943 20.3159 93.6543 20.7399 93.8783 21.1239C94.1183 21.4919 94.4303 21.7879 94.8143 22.0119C95.1983 22.2359 95.6783 22.3479 96.2543 22.3479C96.8303 22.3479 97.3103 22.2359 97.6943 22.0119C98.0943 21.7879 98.4063 21.4919 98.6303 21.1239C98.8703 20.7399 99.0383 20.3159 99.1343 19.8519C99.2303 19.3719 99.2783 18.8839 99.2783 18.3879C99.2783 17.8919 99.2303 17.4039 99.1343 16.9239C99.0383 16.4439 98.8703 16.0199 98.6303 15.6519C98.4063 15.2839 98.0943 14.9879 97.6943 14.7639C97.3103 14.5239 96.8303 14.4039 96.2543 14.4039C95.6783 14.4039 95.1983 14.5239 94.8143 14.7639C94.4303 14.9879 94.1183 15.2839 93.8783 15.6519C93.6543 16.0199 93.4943 16.4439 93.3983 16.9239C93.3023 17.4039 93.2543 17.8919 93.2543 18.3879ZM89.8463 18.3879C89.8463 17.3959 89.9983 16.4999 90.3023 15.6999C90.6063 14.8839 91.0383 14.1959 91.5983 13.6359C92.1583 13.0599 92.8303 12.6199 93.6143 12.3159C94.3983 11.9959 95.2783 11.8359 96.2543 11.8359C97.2303 11.8359 98.1103 11.9959 98.8943 12.3159C99.6943 12.6199 100.374 13.0599 100.934 13.6359C101.494 14.1959 101.926 14.8839 102.23 15.6999C102.534 16.4999 102.686 17.3959 102.686 18.3879C102.686 19.3799 102.534 20.2759 102.23 21.0759C101.926 21.8759 101.494 22.5639 100.934 23.1399C100.374 23.6999 99.6943 24.1319 98.8943 24.4359C98.1103 24.7399 97.2303 24.8919 96.2543 24.8919C95.2783 24.8919 94.3983 24.7399 93.6143 24.4359C92.8303 24.1319 92.1583 23.6999 91.5983 23.1399C91.0383 22.5639 90.6063 21.8759 90.3023 21.0759C89.9983 20.2759 89.8463 19.3799 89.8463 18.3879Z" fill="white"/>
<path d="M88.2668 10.252H84.8588V7.44397H88.2668V10.252ZM84.8588 12.172H88.2668V24.58H84.8588V12.172Z" fill="white"/>
<path d="M79.619 18.34C79.619 17.828 79.571 17.34 79.475 16.876C79.379 16.396 79.211 15.98 78.971 15.628C78.747 15.26 78.451 14.964 78.083 14.74C77.715 14.516 77.251 14.404 76.691 14.404C76.131 14.404 75.659 14.516 75.275 14.74C74.891 14.964 74.579 15.26 74.339 15.628C74.115 15.996 73.947 16.42 73.835 16.9C73.739 17.364 73.691 17.852 73.691 18.364C73.691 18.844 73.747 19.324 73.859 19.804C73.971 20.284 74.147 20.716 74.387 21.1C74.643 21.468 74.955 21.772 75.323 22.012C75.707 22.236 76.163 22.348 76.691 22.348C77.251 22.348 77.715 22.236 78.083 22.012C78.467 21.788 78.771 21.492 78.995 21.124C79.219 20.74 79.379 20.308 79.475 19.828C79.571 19.348 79.619 18.852 79.619 18.34ZM79.667 22.996H79.619C79.219 23.668 78.691 24.156 78.035 24.46C77.395 24.748 76.667 24.892 75.851 24.892C74.923 24.892 74.107 24.716 73.403 24.364C72.699 23.996 72.115 23.508 71.651 22.9C71.203 22.276 70.859 21.564 70.619 20.764C70.395 19.964 70.283 19.132 70.283 18.268C70.283 17.436 70.395 16.636 70.619 15.868C70.859 15.084 71.203 14.396 71.651 13.804C72.115 13.212 72.691 12.74 73.379 12.388C74.067 12.02 74.867 11.836 75.779 11.836C76.515 11.836 77.211 11.996 77.867 12.316C78.539 12.62 79.067 13.076 79.451 13.684H79.499V7.44397H82.907V24.58H79.667V22.996Z" fill="white"/>
<path d="M68.9443 24.58H65.7043V22.852H65.6323C65.2003 23.572 64.6403 24.092 63.9523 24.412C63.2643 24.732 62.5603 24.892 61.8403 24.892C60.9283 24.892 60.1763 24.772 59.5843 24.532C59.0083 24.292 58.5523 23.956 58.2163 23.524C57.8803 23.076 57.6403 22.54 57.4963 21.916C57.3683 21.276 57.3043 20.572 57.3043 19.804V12.172H60.7123V19.18C60.7123 20.204 60.8723 20.972 61.1923 21.484C61.5123 21.98 62.0803 22.228 62.8963 22.228C63.8243 22.228 64.4963 21.956 64.9123 21.412C65.3283 20.852 65.5363 19.94 65.5363 18.676V12.172H68.9443V24.58Z" fill="white"/>
<path d="M53.9068 12.172H56.4028V14.452H53.9068V20.596C53.9068 21.172 54.0028 21.556 54.1948 21.748C54.3868 21.94 54.7708 22.036 55.3468 22.036C55.5388 22.036 55.7228 22.028 55.8988 22.012C56.0748 21.996 56.2428 21.972 56.4028 21.94V24.58C56.1148 24.628 55.7948 24.66 55.4428 24.676C55.0908 24.692 54.7468 24.7 54.4108 24.7C53.8828 24.7 53.3788 24.66 52.8988 24.58C52.4348 24.516 52.0188 24.38 51.6508 24.172C51.2988 23.964 51.0188 23.668 50.8108 23.284C50.6028 22.9 50.4988 22.396 50.4988 21.772V14.452H48.4348V12.172H50.4988V8.45203H53.9068V12.172Z" fill="white"/>
<path d="M37.6489 18.892C37.6489 19.468 37.7529 19.956 37.9609 20.356C38.1689 20.756 38.4409 21.084 38.7769 21.34C39.1289 21.58 39.5369 21.764 40.0009 21.892C40.4649 22.004 40.9449 22.06 41.4409 22.06C41.7769 22.06 42.1369 22.036 42.5209 21.988C42.9049 21.924 43.2649 21.812 43.6009 21.652C43.9369 21.492 44.2169 21.276 44.4409 21.004C44.6649 20.716 44.7769 20.356 44.7769 19.924C44.7769 19.46 44.6249 19.084 44.3209 18.796C44.0329 18.508 43.6489 18.268 43.1689 18.076C42.6889 17.884 42.1449 17.716 41.5369 17.572C40.9289 17.428 40.3129 17.268 39.6889 17.092C39.0489 16.932 38.4249 16.74 37.8169 16.516C37.2089 16.276 36.6649 15.972 36.1849 15.604C35.7049 15.236 35.3129 14.78 35.0089 14.236C34.7209 13.676 34.5769 13.004 34.5769 12.22C34.5769 11.34 34.7609 10.58 35.1289 9.94001C35.5129 9.28401 36.0089 8.74001 36.6169 8.30801C37.2249 7.87601 37.9129 7.55601 38.6809 7.34801C39.4489 7.14001 40.2169 7.03601 40.9849 7.03601C41.8809 7.03601 42.7369 7.14001 43.5529 7.34801C44.3849 7.54001 45.1209 7.86001 45.7609 8.30801C46.4009 8.75601 46.9049 9.33201 47.2729 10.036C47.6569 10.724 47.8489 11.564 47.8489 12.556H44.2009C44.1689 12.044 44.0569 11.62 43.8649 11.284C43.6889 10.948 43.4489 10.684 43.1449 10.492C42.8409 10.3 42.4889 10.164 42.0889 10.084C41.7049 10.004 41.2809 9.96401 40.8169 9.96401C40.5129 9.96401 40.2089 9.99601 39.9049 10.06C39.6009 10.124 39.3209 10.236 39.0649 10.396C38.8249 10.556 38.6249 10.756 38.4649 10.996C38.3049 11.236 38.2249 11.54 38.2249 11.908C38.2249 12.244 38.2889 12.516 38.4169 12.724C38.5449 12.932 38.7929 13.124 39.1609 13.3C39.5449 13.476 40.0649 13.652 40.7209 13.828C41.3929 14.004 42.2649 14.228 43.3369 14.5C43.6569 14.564 44.0969 14.684 44.6569 14.86C45.2329 15.02 45.8009 15.284 46.3609 15.652C46.9209 16.02 47.4009 16.516 47.8009 17.14C48.2169 17.748 48.4249 18.532 48.4249 19.492C48.4249 20.276 48.2729 21.004 47.9689 21.676C47.6649 22.348 47.2089 22.932 46.6009 23.428C46.0089 23.908 45.2649 24.284 44.3689 24.556C43.4889 24.828 42.4649 24.964 41.2969 24.964C40.3529 24.964 39.4329 24.844 38.5369 24.604C37.6569 24.38 36.8729 24.02 36.1849 23.524C35.5129 23.028 34.9769 22.396 34.5769 21.628C34.1769 20.86 33.9849 19.948 34.0009 18.892H37.6489Z" fill="white"/>
</svg>
