<svg width="104" height="32" viewBox="0 0 104 32" fill="none" xmlns="http://www.w3.org/2000/svg">
<rect x="3.98572" y="7.29004" width="17.5" height="17.5" rx="8.75" fill="black"/>
<path d="M24.7758 16C24.7758 22.6274 19.4032 28 12.7758 28C6.14834 28 0.775757 22.6274 0.775757 16C0.775757 9.37258 6.14834 4 12.7758 4C19.4032 4 24.7758 9.37258 24.7758 16ZM2.36964 16C2.36964 21.7471 7.02862 26.4061 12.7758 26.4061C18.5229 26.4061 23.1819 21.7471 23.1819 16C23.1819 10.2529 18.5229 5.59388 12.7758 5.59388C7.02862 5.59388 2.36964 10.2529 2.36964 16Z" fill="black"/>
<path d="M94.0301 18.3879C94.0301 18.8839 94.0781 19.3719 94.1741 19.8519C94.2701 20.3159 94.4301 20.7399 94.6541 21.1239C94.8941 21.4919 95.2061 21.7879 95.5901 22.0119C95.9741 22.2359 96.4541 22.3479 97.0301 22.3479C97.6061 22.3479 98.0861 22.2359 98.4701 22.0119C98.8701 21.7879 99.1821 21.4919 99.4061 21.1239C99.6461 20.7399 99.8141 20.3159 99.9101 19.8519C100.006 19.3719 100.054 18.8839 100.054 18.3879C100.054 17.8919 100.006 17.4039 99.9101 16.9239C99.8141 16.4439 99.6461 16.0199 99.4061 15.6519C99.1821 15.2839 98.8701 14.9879 98.4701 14.7639C98.0861 14.5239 97.6061 14.4039 97.0301 14.4039C96.4541 14.4039 95.9741 14.5239 95.5901 14.7639C95.2061 14.9879 94.8941 15.2839 94.6541 15.6519C94.4301 16.0199 94.2701 16.4439 94.1741 16.9239C94.0781 17.4039 94.0301 17.8919 94.0301 18.3879ZM90.6221 18.3879C90.6221 17.3959 90.7741 16.4999 91.0781 15.6999C91.3821 14.8839 91.8141 14.1959 92.3741 13.6359C92.9341 13.0599 93.6061 12.6199 94.3901 12.3159C95.1741 11.9959 96.0541 11.8359 97.0301 11.8359C98.0061 11.8359 98.8861 11.9959 99.6701 12.3159C100.47 12.6199 101.15 13.0599 101.71 13.6359C102.27 14.1959 102.702 14.8839 103.006 15.6999C103.31 16.4999 103.462 17.3959 103.462 18.3879C103.462 19.3799 103.31 20.2759 103.006 21.0759C102.702 21.8759 102.27 22.5639 101.71 23.1399C101.15 23.6999 100.47 24.1319 99.6701 24.4359C98.8861 24.7399 98.0061 24.8919 97.0301 24.8919C96.0541 24.8919 95.1741 24.7399 94.3901 24.4359C93.6061 24.1319 92.9341 23.6999 92.3741 23.1399C91.8141 22.5639 91.3821 21.8759 91.0781 21.0759C90.7741 20.2759 90.6221 19.3799 90.6221 18.3879Z" fill="black"/>
<path d="M89.0425 10.252H85.6345V7.44397H89.0425V10.252ZM85.6345 12.172H89.0425V24.58H85.6345V12.172Z" fill="black"/>
<path d="M80.3947 18.34C80.3947 17.828 80.3467 17.34 80.2507 16.876C80.1547 16.396 79.9867 15.98 79.7467 15.628C79.5227 15.26 79.2267 14.964 78.8587 14.74C78.4907 14.516 78.0267 14.404 77.4667 14.404C76.9067 14.404 76.4347 14.516 76.0507 14.74C75.6667 14.964 75.3547 15.26 75.1147 15.628C74.8907 15.996 74.7227 16.42 74.6107 16.9C74.5147 17.364 74.4667 17.852 74.4667 18.364C74.4667 18.844 74.5227 19.324 74.6347 19.804C74.7467 20.284 74.9227 20.716 75.1627 21.1C75.4187 21.468 75.7307 21.772 76.0987 22.012C76.4827 22.236 76.9387 22.348 77.4667 22.348C78.0267 22.348 78.4907 22.236 78.8587 22.012C79.2427 21.788 79.5467 21.492 79.7707 21.124C79.9947 20.74 80.1547 20.308 80.2507 19.828C80.3467 19.348 80.3947 18.852 80.3947 18.34ZM80.4427 22.996H80.3947C79.9947 23.668 79.4667 24.156 78.8107 24.46C78.1707 24.748 77.4427 24.892 76.6267 24.892C75.6987 24.892 74.8827 24.716 74.1787 24.364C73.4747 23.996 72.8907 23.508 72.4267 22.9C71.9787 22.276 71.6347 21.564 71.3947 20.764C71.1707 19.964 71.0587 19.132 71.0587 18.268C71.0587 17.436 71.1707 16.636 71.3947 15.868C71.6347 15.084 71.9787 14.396 72.4267 13.804C72.8907 13.212 73.4667 12.74 74.1547 12.388C74.8427 12.02 75.6427 11.836 76.5547 11.836C77.2907 11.836 77.9867 11.996 78.6427 12.316C79.3147 12.62 79.8427 13.076 80.2267 13.684H80.2747V7.44397H83.6827V24.58H80.4427V22.996Z" fill="black"/>
<path d="M69.7201 24.58H66.4801V22.852H66.4081C65.9761 23.572 65.4161 24.092 64.7281 24.412C64.0401 24.732 63.3361 24.892 62.6161 24.892C61.7041 24.892 60.9521 24.772 60.3601 24.532C59.7841 24.292 59.3281 23.956 58.9921 23.524C58.6561 23.076 58.4161 22.54 58.2721 21.916C58.1441 21.276 58.0801 20.572 58.0801 19.804V12.172H61.4881V19.18C61.4881 20.204 61.6481 20.972 61.9681 21.484C62.2881 21.98 62.8561 22.228 63.6721 22.228C64.6001 22.228 65.2721 21.956 65.6881 21.412C66.1041 20.852 66.3121 19.94 66.3121 18.676V12.172H69.7201V24.58Z" fill="black"/>
<path d="M54.6826 12.172H57.1786V14.452H54.6826V20.596C54.6826 21.172 54.7786 21.556 54.9706 21.748C55.1626 21.94 55.5466 22.036 56.1226 22.036C56.3146 22.036 56.4986 22.028 56.6746 22.012C56.8506 21.996 57.0186 21.972 57.1786 21.94V24.58C56.8906 24.628 56.5706 24.66 56.2186 24.676C55.8666 24.692 55.5226 24.7 55.1866 24.7C54.6586 24.7 54.1546 24.66 53.6746 24.58C53.2106 24.516 52.7946 24.38 52.4266 24.172C52.0746 23.964 51.7946 23.668 51.5866 23.284C51.3786 22.9 51.2746 22.396 51.2746 21.772V14.452H49.2106V12.172H51.2746V8.45203H54.6826V12.172Z" fill="black"/>
<path d="M38.4247 18.892C38.4247 19.468 38.5287 19.956 38.7367 20.356C38.9447 20.756 39.2167 21.084 39.5527 21.34C39.9047 21.58 40.3127 21.764 40.7767 21.892C41.2407 22.004 41.7207 22.06 42.2167 22.06C42.5527 22.06 42.9127 22.036 43.2967 21.988C43.6807 21.924 44.0407 21.812 44.3767 21.652C44.7127 21.492 44.9927 21.276 45.2167 21.004C45.4407 20.716 45.5527 20.356 45.5527 19.924C45.5527 19.46 45.4007 19.084 45.0967 18.796C44.8087 18.508 44.4247 18.268 43.9447 18.076C43.4647 17.884 42.9207 17.716 42.3127 17.572C41.7047 17.428 41.0887 17.268 40.4647 17.092C39.8247 16.932 39.2007 16.74 38.5927 16.516C37.9847 16.276 37.4407 15.972 36.9607 15.604C36.4807 15.236 36.0887 14.78 35.7847 14.236C35.4967 13.676 35.3527 13.004 35.3527 12.22C35.3527 11.34 35.5367 10.58 35.9047 9.94001C36.2887 9.28401 36.7847 8.74001 37.3927 8.30801C38.0007 7.87601 38.6887 7.55601 39.4567 7.34801C40.2247 7.14001 40.9927 7.03601 41.7607 7.03601C42.6567 7.03601 43.5127 7.14001 44.3287 7.34801C45.1607 7.54001 45.8967 7.86001 46.5367 8.30801C47.1767 8.75601 47.6807 9.33201 48.0487 10.036C48.4327 10.724 48.6247 11.564 48.6247 12.556H44.9767C44.9447 12.044 44.8327 11.62 44.6407 11.284C44.4647 10.948 44.2247 10.684 43.9207 10.492C43.6167 10.3 43.2647 10.164 42.8647 10.084C42.4807 10.004 42.0567 9.96401 41.5927 9.96401C41.2887 9.96401 40.9847 9.99601 40.6807 10.06C40.3767 10.124 40.0967 10.236 39.8407 10.396C39.6007 10.556 39.4007 10.756 39.2407 10.996C39.0807 11.236 39.0007 11.54 39.0007 11.908C39.0007 12.244 39.0647 12.516 39.1927 12.724C39.3207 12.932 39.5687 13.124 39.9367 13.3C40.3207 13.476 40.8407 13.652 41.4967 13.828C42.1687 14.004 43.0407 14.228 44.1127 14.5C44.4327 14.564 44.8727 14.684 45.4327 14.86C46.0087 15.02 46.5767 15.284 47.1367 15.652C47.6967 16.02 48.1767 16.516 48.5767 17.14C48.9927 17.748 49.2007 18.532 49.2007 19.492C49.2007 20.276 49.0487 21.004 48.7447 21.676C48.4407 22.348 47.9847 22.932 47.3767 23.428C46.7847 23.908 46.0407 24.284 45.1447 24.556C44.2647 24.828 43.2407 24.964 42.0727 24.964C41.1287 24.964 40.2087 24.844 39.3127 24.604C38.4327 24.38 37.6487 24.02 36.9607 23.524C36.2887 23.028 35.7527 22.396 35.3527 21.628C34.9527 20.86 34.7607 19.948 34.7767 18.892H38.4247Z" fill="black"/>
</svg>
